<svg width="1017" height="502" viewBox="0 0 1017 502" fill="none" xmlns="http://www.w3.org/2000/svg">
<path d="M884.242 135.175L888.898 139.294L891.722 137.229L887.603 135.505L891.074 134.638L896.916 137.229L897.026 134.418L901.035 132.254L897.784 128.673L886.307 124.566H884.242L888.336 131.924H885.439L884.242 135.175Z" fill="black" stroke="black" stroke-miterlimit="10"/>
<path d="M900.033 146.759L892.638 138.852L889.448 140.477V144.706H892.638V151.196L887.835 156.012L886.515 154.985V160.729L883.814 160.082L877.312 160.729L873.095 165.606V167.439L870.602 169.933L877.752 177.083L879.536 175.298V170.471L875.368 167.879L882.298 164.628H886.637V167.012L889.179 169.554L893.946 164.787H898.114V162.135H901.035V158.994L900.033 157.992V146.759Z" fill="black" stroke="black" stroke-miterlimit="10"/>
<path d="M880.624 166.575V167.382H882.25V166.037H884.23L885.856 167.663L884.23 169.288H882.568V171.439H880.942L879.524 168.518V166.77L880.624 166.575Z" fill="black" stroke="black" stroke-miterlimit="10"/>
<path d="M725.267 257.984V268.373L727.223 272.272L732.099 269.681V265.782L727.113 257.984H725.267Z" fill="#3578E2" stroke="#3578E2" stroke-miterlimit="10"/>
<path d="M863.109 243.685L868.927 248.073L870.871 244.663L865.835 240.605L862.266 241.412L859.993 238.002V234.262H861.936L863.073 230.204L861.129 225.609L855.336 224.68V233.455H853.649L857.719 242.549L863.109 243.685Z" fill="black" stroke="black" stroke-miterlimit="10"/>
<path d="M859.553 248.071H860.971V244.441L857.17 243.463L859.553 248.071Z" fill="black" stroke="black" stroke-miterlimit="10"/>
<path d="M864.76 257.875L868.109 261.126L872.655 257.435L869.575 252.73L867.999 254.306L863.562 249.857V255.064H867.033V257.875H864.76Z" fill="black" stroke="black" stroke-miterlimit="10"/>
<path d="M872.496 250.127L870.871 251.753L874.391 256.141L876.774 253.22L875.258 251.704V249.101L873.743 247.365L870.871 248.074L872.496 250.127Z" fill="black" stroke="black" stroke-miterlimit="10"/>
<path d="M880.025 266.1L876.774 256.787L874.611 257.337L875.454 260.332L872.655 263.13H867.509L863.024 267.616H864.209L866.275 265.563H871.335V269.755L874.611 273.03H875.906V266.968H878.95V270.219L880.025 266.1Z" fill="black" stroke="black" stroke-miterlimit="10"/>
<path d="M849.054 263.938L857.878 255.113L855.984 253.219L848.516 262.642L849.054 263.938Z" fill="black" stroke="black" stroke-miterlimit="10"/>
<path d="M955.987 467.047L961.841 468.673L992.702 451.94V448.359H989.622L989.451 446.086L955.987 467.047Z" fill="black" stroke="black" stroke-miterlimit="10"/>
<path d="M995.306 448.529L997.09 450.155L1015.94 436.344L1014.31 434.877L1009.92 436.344L1006.83 434.877L1008.63 432.115L1007 426.114L1003.75 424.537V433.093L995.636 441.221L998.227 444.459L995.306 448.529Z" fill="black" stroke="black" stroke-miterlimit="10"/>
<path d="M892.7 339.203L894.313 337.907V336.172H889.986L890.585 337.089L892.7 339.203Z" fill="black" stroke="black" stroke-miterlimit="10"/>
<path d="M949.179 383.386V377.703H946.893V369.416L939.267 361.79V349.604H933.901V339.362H931.787V333.85H929.183L925.834 345.534V350.252L922.363 360.971H919.124L907.012 348.871L912.94 340.511L911.155 338.066L908.393 339.692L897.845 337.089L897.784 340.829H891.722L885.978 346.573V350.362H881.92L877.996 346.439L861.399 358.16V362.926L831.075 376.786L827.616 385.66L830 391.074L826.528 394.118V417.071L824.438 419.149V423.133L827.213 425.908H834.754L840.364 420.298H851.437L854.334 417.401L878.84 412.952L886.735 415.983V425.908L888.104 424.551L896.623 416.02L897.784 417.829L891.013 425.908L892.321 426.922L896.208 423.83L894.105 428.218H897.784V437.348L905.472 439.914L910.19 437.348L913.27 439.914L926.922 434.879L930.98 428.548L944.302 416.521L953.554 400.278V387.774L949.179 383.386Z" fill="black" stroke="black" stroke-miterlimit="10"/>
<path d="M909.261 448.947L904.983 446.246L902.71 448.532V452.993L901.659 453.799V457.466H905.399L907.623 455.229H908.968L915.885 448.299L914.248 447.065L909.261 448.947Z" fill="black" stroke="black" stroke-miterlimit="10"/>
<path d="M962.819 312.4H961.682L960.215 314.466H951.122L951.929 317.191H955.424L956.805 318.572L962.403 315.492H964.933V310.371H962.819V312.4Z" fill="black" stroke="black" stroke-miterlimit="10"/>
<path d="M960.619 304.603L966.791 309.32V311.997H968.258V308.746L960.619 303.393V304.603Z" fill="black" stroke="black" stroke-miterlimit="10"/>
<path d="M972.23 313.869L975.237 320.603H977.107V317.841L973.452 313.453L972.23 313.869Z" fill="black" stroke="black" stroke-miterlimit="10"/>
<path d="M978.451 318.449L978.329 320.038L981.336 322.47H983.45V321.737H981.739L978.451 318.449Z" fill="black" stroke="black" stroke-miterlimit="10"/>
<path d="M989.451 326.614V324.548L986.444 322.471H984.66V323.607H986.689L988.241 326.614H989.451Z" fill="black" stroke="black" stroke-miterlimit="10"/>
<path d="M978.329 325.147L981.58 327.836H983.45V326.296L978.329 323.045V325.147Z" fill="black" stroke="black" stroke-miterlimit="10"/>
<path d="M987.911 330.845H991.896V329.623L987.911 328.4V330.845Z" fill="black" stroke="black" stroke-miterlimit="10"/>
<path d="M954.422 330.001V328.375H951.721L946.734 319.709H950.523L949.447 316.678L943.813 314.515L943.055 311.044L940.342 309.32H939.376L928.865 304.48V329.304L932.874 329.781L936.443 323.498L943.923 325.124L948.897 333.252H954.532L957.563 335.195L958.541 332.922L955.938 330.001H954.422Z" fill="black" stroke="black" stroke-miterlimit="10"/>
<path d="M601.871 139.026L603.986 140.322H605.99V139.808L605.135 138.953L604.817 136.936L600.295 134.907H596.885L587.241 131.277L585.652 131.632C587.803 133.783 589.979 135.958 590.065 136.044C590.223 136.203 590.065 137.67 590.065 137.67L588.769 138.965H593.475L595.1 140.591H600.246L601.871 139.026Z" fill="black" stroke="black" stroke-miterlimit="10"/>
<path d="M601.529 146.065L602.079 145.369L605.037 147.239L605.355 148.767L607.176 148.657L606.797 146.004L603.986 144.929L604.792 143.951L601.272 140.59H600.246H595.1L595.699 141.189L598.999 148.033L601.175 145.577L601.529 146.065Z" fill="black" stroke="black" stroke-miterlimit="10"/>
<path d="M602.079 145.369L601.529 146.066L603.607 148.877L605.355 148.767L605.037 147.239L602.079 145.369Z" fill="black" stroke="black" stroke-miterlimit="10"/>
<path d="M611.417 137.803L609.131 140.37L606.308 137.62L604.817 136.936L605.135 138.952L605.99 139.808V140.321H603.986L601.871 139.026L600.246 140.59H601.272L604.792 143.951L603.986 144.929L606.797 146.004L607.139 148.437L610.097 145.674L612.052 146.163L611.698 149.231L613.837 150.258V148.278L615.193 146.921V144.269L617.161 143.193L611.417 137.803Z" fill="black" stroke="black" stroke-miterlimit="10"/>
<path d="M631.816 224.227H622.637L616.135 230.717L614.815 229.397L603.338 228.529V231.56L601.749 233.076L601.822 233.186L605.709 246.716L633.111 235.679V233.186L636.02 231.573L632.39 223.934L631.816 224.227Z" fill="black" stroke="black" stroke-miterlimit="10"/>
<path d="M642.4 201.21H644.906L643.292 197.336L636.582 204.804H630.496L632.573 208.703L640.799 209.35L640.811 209.363L642.4 204.535V201.21Z" fill="black" stroke="black" stroke-miterlimit="10"/>
<path d="M656.724 210.013L652.385 205.564L645.785 203.291L644.905 201.213H642.4V204.537L640.811 209.365L643.072 211.748L641.349 219.424L632.39 223.934L636.02 231.573L650.662 223.433L656.724 210.013Z" fill="black" stroke="black" stroke-miterlimit="10"/>
<path d="M628.455 202.409V195.932H626.621L625.277 199.464L627.098 203.082L628.455 202.409Z" fill="black" stroke="black" stroke-miterlimit="10"/>
<path d="M611.368 185.529L605.367 185.041L591.311 174.004H586.923L581.24 176.681L583.44 179.198L582.621 181.875H580.262L578.392 185.529L573.809 184.209L572.904 189.648H575.935L601.749 233.074L603.338 231.559V228.527L614.814 229.395L616.134 230.715L622.637 224.225H631.816L641.349 219.422L643.072 211.746L640.799 209.351L632.573 208.703L630.496 204.804H630.08L628.454 203.178V202.408L627.098 203.081L625.277 199.463L625.106 199.94L617.736 187.693V182.474L612.92 181.716L611.368 185.529Z" fill="black" stroke="black" stroke-miterlimit="10"/>
<path d="M577.377 168.554V166.648H578.196V165.597L575.471 163.727V164.9L573.503 170.608H575.336L577.377 168.554Z" fill="black" stroke="black" stroke-miterlimit="10"/>
<path d="M575.471 170.475L575.336 170.609H573.503L571.009 177.82H570.924L573.882 183.797L573.808 184.212L574.26 184.347L575.471 177.942V170.475Z" fill="black" stroke="black" stroke-miterlimit="10"/>
<path d="M578.502 173.479H579.945L591.959 165.449V160.353V159.24V157.59H593.426L595.809 155.207H594.892H589.466L587.302 157.383H577.341L575.471 159.24V163.726L578.197 165.596V166.647H577.378V168.554L575.471 170.473V171.56H576.583L578.502 173.479Z" fill="black" stroke="black" stroke-miterlimit="10"/>
<path d="M615.511 178.173H614.546V174.433L612.859 172.758H611.612L609.938 171.072H608.019V169.8L605.391 167.173V164.74L606.797 163.335H607.934V162.846L607.176 162.088V159.595H605.012L602.214 155.207H600.735H599.647H595.809L593.426 157.59H591.959V159.24V160.353V165.449L585.298 169.898L587.009 174.005H591.311L605.367 185.042L611.368 185.53L612.92 181.717L617.736 182.475V182.414L615.511 180.287V178.173Z" fill="black" stroke="black" stroke-miterlimit="10"/>
<path d="M662.897 194.418H665.928V191.705H663.324V187.378H661.589L656.015 181.793L658.668 179.14V176.439H656.174L654.451 169.289L653.583 168.422V157.373H651.42L643.622 153.046H640.371V151.53H633.331V154.561H630.349V155.759L624.775 157.373L618.603 154.134H615.682L613.836 150.663V150.443V150.259L611.697 149.233L612.052 146.165L610.096 145.676L607.139 148.438L607.175 148.658L605.354 148.768L603.606 148.878L601.529 146.067L601.174 145.578L598.999 148.035L602.47 155.209H602.213L605.012 159.597H607.175V162.09L607.933 162.848V163.337H606.796L605.391 164.743V167.175L608.019 169.803V171.074H609.937L611.612 172.76H612.859L614.545 174.435V178.175H615.511V180.289L617.735 182.416V181.365H622.233L627.428 190.031L630.275 190.251L635.824 194.956H642.314V193.111H646.433V196.252L660.843 199.038V196.472L662.897 194.418Z" fill="black" stroke="black" stroke-miterlimit="10"/>
<path d="M717.127 113.32V110.436L715.636 110.093H710.82L704.807 104.08L699.393 105.058L697.009 102.833L694.736 104.728L680.277 93.0311V90.5989L675.669 95.2067H672.748V92.3955H665.06L662.567 88.1666L656.615 88.0566L638.098 92.8233L636.912 94.1189L638.208 96.7222L636.802 100.841L641.349 102.467V105.559H634.688L632.793 103.664H627.599L625.656 105.62L616.122 101.501H611.246L604.646 105.07L606.699 107.123L605.452 108.37L602.262 105.18L600.307 107.136V113.956H602.47V116.828H605.55L610.427 121.705L611.074 121.057L615.572 118.735H621.414L623.419 120.739V124.479H617.296L614.484 127.29V128.696H616.428L620.657 132.925H623.419V135.736L624.226 138.449L624.873 136.286H627.037L627.122 136.469L628.662 135.858L631.046 137.593L632.451 139.867H634.077L631.156 126.117L639.063 124.063L640.848 125.041L639.87 122.707L640.848 120.592L642.962 121.399L646.055 126.435L645.419 127.547L647.509 128.708L650.76 131.959H659.964L662.885 134.88V136.836H665.916V140.307H670.792V142.8H673.616L678.81 135.76V134.245H685.532V132.839H687.916L689.395 134.318H701.678L706.445 135.772L707.313 132.313L702.766 126.141L706.665 124.736L710.026 125.408V124.088L708.62 122.682V118.246H716.198V116.73L714.793 115.312V113.393H717.151L717.127 113.32ZM697.547 119.737H687.146L684.494 122.389L684.714 126.068L681.792 124.442V120.543L684.176 118.16H697.547V119.725V119.737Z" fill="black" stroke="black" stroke-miterlimit="10"/>
<path d="M659.915 161.87V160.037L664.351 158.24V154.293H669.228V150.993H665.928L659.181 147.607L651.42 139.834H645.7V137.756L642.486 134.529H639.882V136.534H637.939V139.834L634.028 139.516L634.089 139.834H632.463L631.058 137.56L628.674 135.825L627.135 136.436L628.027 138.428L630.3 140.164L629.86 141.887H624.996V144.82H627.159L630.349 148.01V154.562H633.331V151.53H640.371V153.046H643.622L651.42 157.373H653.583V160.404L657.641 161.87H659.915Z" fill="#3578E2" stroke="#3578E2" stroke-miterlimit="10"/>
<path d="M674.728 151.749L670.744 147.276V145.577H673.909L677.979 140.945L679.678 141.886L678.7 142.754L680.167 144H683.797L686.18 141.617L681.414 138.806V140.212L677.515 138.806L679.47 136.643L678.529 136.105L673.616 142.754H670.805V140.273H665.928V136.802H662.897V134.846L659.976 131.925H650.772L647.521 128.674L645.419 127.525L643.94 130.14L640.689 129.358L641.508 126.572L640.86 125.007L639.076 124.029L631.168 126.083L634.028 139.515L637.939 139.833V136.533H639.882V134.528H642.486L645.7 137.755V139.833H651.42L659.181 147.606L665.928 150.992H669.228V153.632L673.017 154.829L674.728 151.749Z" fill="black" stroke="black" stroke-miterlimit="10"/>
<path d="M448.359 92.2124H447.149L446.257 93.1047L444.571 91.968L447.748 89.0469H443.874V91.1491L442.517 92.5058H438.398V94.9991L439.914 96.5147L434.964 101.465L436.883 103.384H441.808L445.218 99.9858H448.579L449.826 96.2213V93.8625L450.584 93.1047H448.359V92.2124Z" fill="black" stroke="black" stroke-miterlimit="10"/>
<path d="M450.584 93.1047L452.808 90.8802L450.963 89.0469H447.748L444.57 91.968L446.257 93.1047L447.149 92.2124H448.359V93.1047H450.584Z" fill="black" stroke="black" stroke-miterlimit="10"/>
<path d="M471.753 98.6814L470.995 96.2247L469.809 97.4958H466.986L468.294 95.5402L465.69 90.7002H464.688L462.525 88.5247L460.117 86.1169V84.6624L462.879 81.9002V80.9224H457.025L459.408 78.5391V77.3535H456.267L453.664 79.9446H451.293V83.1958L450.315 84.1735V86.6669H449.667L450.743 87.7424L451.39 87.0947V88.4513H452.637L453.994 87.0947L454.703 87.8036L453.297 89.2091L454.214 90.1258H457.673L458.113 93.3769V96.2247H453.566L453.994 97.9236V100.307H452.05V101.602H453.884L455.949 102.25L458.87 101.602L457.245 103.204H454.238L449.667 107.775H451.073L454.813 106.43L456.267 104.964H458.223L459.298 106.051L468.184 104.854L470.127 102.8H468.501L471.753 98.6814Z" fill="black" stroke="black" stroke-miterlimit="10"/>
<path d="M448.689 80.5924L451.073 78.6491L447.932 78.1113V79.7369L446.844 80.0547L447.932 82.878L448.689 80.5924Z" fill="black" stroke="black" stroke-miterlimit="10"/>
<path d="M461.682 74.6387H459.628V76.2642H460.655L461.682 74.6387Z" fill="black" stroke="black" stroke-miterlimit="10"/>
<path d="M496.014 14.4294L509.226 20.4916L515.509 14.4294L521.791 18.6461L525.47 15.7249L518.1 12.6938H530.017V9.8827L516.376 8.79492L496.014 10.5305V14.4294Z" fill="black" stroke="black" stroke-miterlimit="10"/>
<path d="M521.705 42.3496H519.677L508.787 49.9763V51.6874H506.758V53.9608L504.411 56.3197L505.376 57.2119V58.7274H501.539V71.1819L499.913 75.3986L498.385 76.2908L502.516 83.7342L501.869 85.7998L498.288 87.0953V89.8087L501.649 89.5887V88.5009H502.724H506.953V85.9098H511.61L514.067 78.4053L518.271 74.2131V73.5042L513.993 69.2264V64.1419L522.06 59.2163L524.064 57.2119L522.757 56.0141L525.58 53.203H527.963V45.7596L521.705 42.3496Z" fill="black" stroke="black" stroke-miterlimit="10"/>
<path d="M485.992 117.902V116.387L487.679 116.118L489.463 111.84L480.37 108.1L479.233 108.748L473.195 103.346L470.678 104.959V107.122L466.229 108.528V110.374L462.77 110.263V108.528L460.166 109.078L461.144 110.484V112.427L457.783 112.757L456.915 111.571L452.051 112.977L452.809 115.678L458.333 117.194L458.431 118.391L461.792 121.74L460.105 131.2L466.314 134.684L467.451 133.498L473.868 134.916V133.388L477.119 131.432L482.313 133.144H484.745L488.485 130.332L485.723 128.841V121.471H483.425V120.469L485.992 117.902Z" fill="black" stroke="black" stroke-miterlimit="10"/>
<path d="M492.714 133.498V134.574H490.709V137.446L491.712 139.34H492.714V137.397H493.679V133.498H492.714Z" fill="black" stroke="black" stroke-miterlimit="10"/>
<path d="M442.395 151.65L441.515 150.77V149.475L442.896 148.766L441.515 145.674H444.142V141.127L445.658 139.611V137.827H440.244V136.91H437.97V141.885L434.829 149.035L436.235 150.44V155.965L440.451 154.669H440.916V153.129L442.395 151.65Z" fill="black" stroke="black" stroke-miterlimit="10"/>
<path d="M467.45 133.499L466.314 134.684L460.105 131.201L459.946 132.032L457.135 131.384H444.57L441.894 130.541L440.024 132.411H437.799L436.675 133.548L437.97 134.843V136.909H440.244V137.825H445.658V139.61L444.143 141.125V145.672H441.515L442.896 148.764L441.515 149.473V150.769L442.395 151.649L440.916 153.128V154.668H442.627L444.143 156.183V158.029L446.526 159.544L450.315 156.171H456.768L463.222 149.706V145.733L466.803 141.993V140.783L473.867 137.618V134.917L467.45 133.499Z" fill="black" stroke="black" stroke-miterlimit="10"/>
<path d="M532.888 39.0591H537.166L540.637 40.4158L541.212 41.3202L544.964 39.7069V37.8247L532.179 36.2969L517.134 39.2302L509.764 43.0191V41.6136L506.085 44.0947H501.868V45.1825H506.305L506.256 46.2214L501.135 51.3547V54.0925L494.009 61.2059H492.115V60.1303L482.264 64.677V75.8359L488.436 79.7348L496.014 75.7259H498.067L498.385 76.2881L499.913 75.3959L501.538 71.1792V58.7247H505.376V57.2092L504.41 56.3169L506.757 53.958V51.6847H508.786V49.9736L519.676 42.3469H521.705L523.538 43.3369H532.888V39.0591Z" fill="black" stroke="black" stroke-miterlimit="10"/>
<path d="M546.699 60.3498V58.2842L545.172 56.7687V52.9798L541.933 49.4109L543.937 45.9397L540.307 44.8519V41.723L541.212 41.3197L540.637 40.4153L537.166 39.0586H532.888V43.3364H523.538L527.963 45.7564V53.1998H531.813V55.5342L525.176 62.1831V68.282L529.698 72.792L541.395 70.4209L542.849 69.382L543.338 69.8709L549.62 64.762V63.2709L546.699 60.3498Z" fill="black" stroke="black" stroke-miterlimit="10"/>
<path d="M491.895 140.164L490.709 141.301H488.864V142.376L490.135 143.647V148.231H491.895V147.583H493.679V143.415L494.474 142.621L493.679 140.164H491.895Z" fill="black" stroke="black" stroke-miterlimit="10"/>
<path d="M520.165 145.247L521.057 143.462L513.174 139.319L514.396 138.097L513.748 137.376L510.253 137.535L507.087 135.017L505.792 131.362L501.807 128.185L502.369 126.327L501.404 124.371L505.107 123.186V121.475L501.049 118.822L496.344 119.421L495.256 121.364L492.983 121.157L491.663 122.403L490.306 121.157L488.864 122.587H485.723V128.845L488.485 130.336L491.247 128.27L495.146 129.981L496.038 133.953L504.166 140.456L505.621 140.37L511.145 144.758L512.208 144.513L513.345 148.253L512.123 150.441L505.95 151.101L505.132 151.908L503.518 151.505L502.296 152.959L510.497 157.274L511.475 155.648L510.412 154.022L511.878 151.663L513.589 152.311L516.999 148.742V146.628L514.555 145.491L516.181 143.059L520.165 145.247Z" fill="black" stroke="black" stroke-miterlimit="10"/>
<path d="M495.256 116.501H488.326L487.728 116L487.679 116.122L485.992 116.391V117.907L483.425 120.473V121.476H485.723V122.588H488.864L490.306 121.158L491.663 122.404L492.983 121.158L495.256 121.366L496.198 119.691L493.411 118.224L495.256 116.501Z" fill="black" stroke="black" stroke-miterlimit="10"/>
<path d="M483.425 103.912L480.65 102.568L474.918 102.25L473.195 103.35L479.233 108.752L480.369 108.104L482.508 108.984L484.672 106.797L483.425 103.912Z" fill="black" stroke="black" stroke-miterlimit="10"/>
<path d="M484.342 101.832H483.205V101.038H485.344L486.542 99.84V99.0333H485.442V98.2633H486.945V96.4788L486.346 95.4277H482.912L479.661 97.2733V99.2166L474.918 102.248L480.651 102.566L483.425 103.91L483.462 104.008L484.342 102.969V101.832Z" fill="#3578E2" stroke="#3578E2" stroke-miterlimit="10"/>
<path d="M494.205 88.4716L497.371 85.306L496.613 84.5482L495.256 83.1916L496.442 82.006V80.7227H494.853L493.093 82.4827H491.406L489.512 84.3893V88.606L491.59 90.6838L494.205 89.816V88.4716Z" fill="black" stroke="black" stroke-miterlimit="10"/>
<path d="M507.87 101.087V98.3006L506.708 97.1395L506.904 93.4728L504.349 90.9184H501.563L499.693 92.7884H496.759L495.354 91.395L494.205 90.2339V89.8184L491.589 90.6861L492.005 91.1017V94.3528H490.929V95.4284H489.194V94.3528H486.481V95.4284H486.346L486.945 96.4795V98.2639H485.442V99.0339H486.542V99.8406L485.344 101.038H483.205V101.833H484.342V102.97L483.462 104.008L484.672 106.795L482.508 108.983L489.463 111.843L487.727 115.998L488.326 116.5H492.934H495.256L494.877 116.854L502.785 115.998L503.396 113.982L506.268 112.356L500.988 109.68V106.343L507.173 104.008H509.043V102.248L507.87 101.087Z" fill="black" stroke="black" stroke-miterlimit="10"/>
<path d="M519.835 107.077V109.594L519.64 109.79H528.733L530.236 111.293H531.006V109.142L533.561 106.588H535.15V104.926L533.561 103.337V100.257H531.862V98.2278H533.891V96.1867L532.51 94.8055V91.64H530.126H522.756L522.219 92.19H518.65V90.9922H512.905L507.038 93.6078L506.904 93.4733L506.708 97.14L507.87 98.3011V101.088L509.043 102.249V103.654L514.971 107.077H519.835Z" fill="#3578E2" stroke="#3578E2" stroke-miterlimit="10"/>
<path d="M537.435 79.2457L539.281 81.079H541.823V80.6513L543.008 79.8324L541.224 76.4835L542.642 75.3468L542.593 74.0879L542.361 74.2101H532.937L529.038 76.5935L526.875 77.779L527.743 78.9768L530.126 78.4268L530.774 77.2412L532.069 78.5368H533.695V80.0401L535.651 79.2457H537.435Z" fill="black" stroke="black" stroke-miterlimit="10"/>
<path d="M509.043 111.623H511.231L515.069 112.833L516.23 113.212L519.64 109.79H519.579H519.64L519.835 109.594V107.077H514.971L509.043 103.654V104.009H507.173L500.989 106.343V109.68L506.269 112.357L505.413 112.845H509.043V111.623Z" fill="#3578E2" stroke="#3578E2" stroke-miterlimit="10"/>
<path d="M530.505 90.0748H527.963L527.364 89.207H526.276L524.846 89.5615L522.756 91.6393H530.126L530.505 90.0748Z" fill="black" stroke="black" stroke-miterlimit="10"/>
<path d="M510.632 122.877H511.61V121.741L513.101 120.262L513.272 119.027L511.952 120.335H505.816L504.729 121.227L505.107 121.472V123.183L505.951 122.914L506.11 124.075H510.632V122.877Z" fill="black" stroke="black" stroke-miterlimit="10"/>
<path d="M511.951 120.338L513.271 119.03L513.626 118.675L515.826 114.923L515.068 112.833L511.23 111.623H509.042V112.845H505.412L503.396 113.982L502.785 115.999L494.877 116.854L493.41 118.223L496.197 119.69L496.343 119.421L501.049 118.822L504.728 121.23L505.816 120.338H511.951Z" fill="black" stroke="black" stroke-miterlimit="10"/>
<path d="M511.756 127.037L514.751 125.436L521.681 125.815V122.588H520.104V123.431H517.672L513.101 120.266L511.61 121.745V122.881H510.632V124.079H506.11V124.128L505.059 125.436L507.98 127.782L508.713 125.925L509.764 129.579L520.446 135.495L515.289 130.581L511.756 127.037Z" fill="black" stroke="black" stroke-miterlimit="10"/>
<path d="M527.963 84.905H535.675L536.726 85.9561H538.034L539.733 87.6672H540.674H542.825L544.768 85.6139L543.668 83.4139V81.8983H541.823V81.0794H539.28L537.435 79.2461H535.65L533.695 80.0405V83.7317H531.324L529.038 81.4461H526.569L524.602 83.4139V86.665L525.042 87.325L525.359 85.675L527.963 84.905Z" fill="black" stroke="black" stroke-miterlimit="10"/>
<path d="M537.387 92.861L538.035 93.2888L538.927 92.4943L538.316 91.8465L538.927 89.8054L541.078 89.2065L540.675 87.6665H539.733L538.035 85.9554H536.727L535.676 84.9043H527.963L525.36 85.6743L525.042 87.3243L525.116 87.4465L525.849 88.5588L524.847 89.561L526.277 89.2065H527.364L527.963 90.0743H530.506L530.127 91.6388H532.51V93.7166H534.942L537.387 92.861Z" fill="black" stroke="black" stroke-miterlimit="10"/>
<path d="M536.078 100.989H539.574L540.014 101.441H542.935L543.473 101.979H547.592L548.179 102.566H552.493V103.458H553.177V101.514L554.461 100.414H554.436V96.2955H558.176V94.2422L552.432 90.4533V87.4711L544.964 86.0044L544.769 85.6133L542.825 87.6666H540.674L541.077 89.2066L538.926 89.8055L538.315 91.8466L538.926 92.4944L538.034 93.2889L537.386 92.8611L534.942 93.7166H532.51V94.8044L533.891 96.1855V98.2267H531.862V100.256H533.561V102.309H534.758L536.078 100.989Z" fill="black" stroke="black" stroke-miterlimit="10"/>
<path d="M555.634 122.453L555.732 122.343V120.338H557.797H559.961V121.854H564.727L564.617 122.612L561.097 124.188V124.946H563.261V125.545H564.752V127.464L566.084 128.784L569.763 126.779V125.643H573.393V124.457L569.567 124.421L567.917 122.783V121.805L570.631 119.361H573.014L577.561 118.273V114.655H581.68V107.896H575.544L573.882 106.234H568.382L562.564 100.416H554.461L553.177 101.516V103.459H552.493V102.567H548.178L547.592 101.98H543.473L542.935 101.443H540.014L539.574 100.99H536.078L534.758 102.31H533.561V103.337L535.149 104.926V106.588H533.561L531.006 109.143V111.294H530.322L530.028 113.567L532.668 115.315H537.264L538.437 116.329H539.501L540.209 115.621H542.128L544.206 113.555H546.638L551.087 115.413V117.197L553.385 119.507V120.338H550.537V122.942L548.936 124.408L550.109 125.508L551.368 124.506L552.652 124.433V123.406H553.788L554.485 121.707" fill="#3578E2"/>
<path d="M555.634 122.453L555.732 122.343V120.338H557.797H559.961V121.854H564.727L564.617 122.612L561.097 124.188V124.946H563.261V125.545H564.752V127.464L566.084 128.784L569.763 126.779V125.643H573.393V124.457L569.567 124.421L567.917 122.783V121.805L570.631 119.361H573.014L577.561 118.273V114.655H581.68V107.896H575.544L573.882 106.234H568.382L562.564 100.416H554.461L553.177 101.516V103.459H552.493V102.567H548.178L547.592 101.98H543.473L542.935 101.443H540.014L539.574 100.99H536.078L534.758 102.31H533.561V103.337L535.149 104.926V106.588H533.561L531.006 109.143V111.294H530.322L530.028 113.567L532.668 115.315H537.264L538.437 116.329H539.501L540.209 115.621H542.128L544.206 113.555H546.638L551.087 115.413V117.197L553.385 119.507V120.338H550.537V122.942L548.936 124.408L550.109 125.508L551.368 124.506L552.652 124.433V123.406H553.788L554.485 121.707" stroke="#3578E2" stroke-miterlimit="10"/>
<path d="M548.594 119.419L548.056 124.088L548.985 124.357L550.538 122.939V120.336H553.385V119.505L551.088 117.195V115.411L546.639 113.553H544.206L543.546 114.213L545.013 116.254L548.594 119.419Z" fill="black" stroke="black" stroke-miterlimit="10"/>
<path d="M520.654 115.963V114.79H526.863L527.976 113.678H530.188L530.029 113.568L530.322 111.294H530.237L528.733 109.791H519.64L516.23 113.213L515.069 112.834L515.827 114.924L515.766 115.047L517.318 115.963H520.654Z" fill="#3578E2" stroke="#3578E2" stroke-miterlimit="10"/>
<path d="M530.786 116.427V118.297L527.523 121.548H525.359V122.159L526.264 123.663L530.028 127.439H533.108V129.432V129.529L534.783 131.204H542.678L544.524 129.358L548.459 129.7L550.818 131.436H550.867V126.889H553.409V124.677L555.634 122.453L554.485 121.707L553.788 123.406H552.652V124.433L551.368 124.506L550.109 125.508L548.936 124.408L548.985 124.359L548.056 124.09L548.594 119.422L545.013 116.256L543.546 114.215L542.128 115.62H540.209L539.501 116.329H538.437L537.264 115.315H532.668L532.607 115.278L532.02 116.427H530.786Z" fill="black" stroke="black" stroke-miterlimit="10"/>
<path d="M525.36 121.547H527.523L530.786 118.296V116.426H532.021L532.607 115.277L530.187 113.676H527.975L526.863 114.788H520.654V115.961H517.317L515.765 115.045L513.626 118.675L513.272 119.029L513.101 120.264L517.672 123.429H520.104V122.586H521.681V122.671L523.233 121.547H525.36Z" fill="black" stroke="black" stroke-miterlimit="10"/>
<path d="M521.864 131.482H523.233V129.404L522.17 128.341L522.927 127.583V126.238L521.681 125.603V125.811L514.751 125.432L511.756 127.033L515.289 130.577L516.694 132.337L517.489 133.107L518.051 133.633L520.446 135.491L520.251 133.388L521.864 131.482Z" fill="black" stroke="black" stroke-miterlimit="10"/>
<path d="M526.985 136.862L525.604 135.48H523.881L522.683 136.678H521.974L523.172 137.619L522.842 143.865L525.849 146.224L525.983 146.444H526.716V144.378H527.572L528.929 143.022V141.75L526.826 140.369L526.985 136.862Z" fill="black" stroke="black" stroke-miterlimit="10"/>
<path d="M532.338 135.895V135.992L527.926 136.396L527.217 137.092L526.985 136.86L526.826 140.368L528.928 141.749V141.725H530.725V140.258H532.827L533.512 139.573H534.135V137.777L532.338 135.895Z" fill="black" stroke="black" stroke-miterlimit="10"/>
<path d="M547.128 136.801L548.594 136.96V131.435H550.819L548.46 129.7L544.524 129.357L542.679 131.203H534.783L533.109 129.529V129.431L532.559 129.7V131.24L533.891 132.572V133.916H532.339V135.896L534.136 137.779V139.575H534.954L535.761 138.781H538.487L539.416 139.697H543.339V138.194H544.304L544.414 138.304L545.038 137.094L547.128 136.801Z" fill="black" stroke="black" stroke-miterlimit="10"/>
<path d="M587.302 157.383L589.465 155.208H594.892H599.647H600.734H602.47L595.699 141.189L593.474 138.964H588.769L586.605 141.127H579.076V140.101H574.151L571.169 137.131H564.459L559.203 139.343V140.101H552.811L548.594 136.96L547.127 136.801L545.037 137.094L544.414 138.304L545.037 138.94V140.027H544.5V141.739L546.639 141.677L547.861 141.262H552.322L553.862 141.836L552.566 143.217L546.883 143.132L543.962 144.684L545.991 149.707L549.242 156.906H553.666L555.255 158.483H558.494V155.721H561.256L564.422 158.899H569.054L570.924 157.029H575.471V159.241L577.341 157.383H587.302Z" fill="black" stroke="black" stroke-miterlimit="10"/>
<path d="M535.92 153.779L532.595 151.42L533.316 150.613L537.619 153.534V151.664L541.2 152.96V152.239L538.523 150.772L537.949 148.988L533.402 143.133L539.244 141.104L544.121 141.752L544.5 141.74V140.029H545.037V138.941L544.304 138.195H543.339V139.699H539.415L538.486 138.782H535.761L534.954 139.576H533.512L532.827 140.261H530.725V141.728H528.928V143.023L527.572 144.38H526.716V146.445H525.983L528.611 150.528L530.798 150.931L529.503 152.801L530.31 155.233L531.862 156.859L532.021 155.808L533.475 157.348L534.209 156.7L535.186 158.57L536.079 157.592L534.942 154.756L535.92 153.779Z" fill="black" stroke="black" stroke-miterlimit="10"/>
<path d="M543.962 161.663H541.982L541.652 161.321H539.501L539.256 161.076L537.007 161.113V162.714H539.928L541.114 163.606H545.502V162.36H543.962V161.663Z" fill="black" stroke="black" stroke-miterlimit="10"/>
<path d="M543.265 155.271H541.529V156.274H543.265V155.271Z" fill="black" stroke="black" stroke-miterlimit="10"/>
<path d="M540.136 156.76H539.244V157.334H540.136V156.76Z" fill="black" stroke="black" stroke-miterlimit="10"/>
<path d="M548.729 160H547.775V162.053H548.729V160Z" fill="black" stroke="black" stroke-miterlimit="10"/>
<path d="M545.233 153.375H544.182V154.695H545.233V153.375Z" fill="black" stroke="black" stroke-miterlimit="10"/>
<path d="M544.5 149.904H543.473V151.579H544.5V149.904Z" fill="black" stroke="black" stroke-miterlimit="10"/>
<path d="M544.707 156.102H543.803V157.043H544.707V156.102Z" fill="black" stroke="black" stroke-miterlimit="10"/>
<path d="M551.271 158.275H549.865V159.791H551.271V158.275Z" fill="black" stroke="black" stroke-miterlimit="10"/>
<path d="M532.558 131.239V129.699L533.108 129.43V127.438H530.028L526.264 123.661L525.36 122.158V121.547H523.233L521.681 122.671V125.605L522.927 126.24V127.585L522.17 128.342L523.233 129.406V131.484H522.988L525.518 135.48H525.604L527.217 137.094L527.926 136.397L532.338 135.994V133.916H533.891V132.571L532.558 131.239Z" fill="black" stroke="black" stroke-miterlimit="10"/>
<path d="M521.864 131.484L520.25 133.391L520.446 135.493L521.974 136.679H522.683L523.88 135.481H525.518L522.988 131.484H521.864Z" fill="black" stroke="black" stroke-miterlimit="10"/>
<path d="M590.553 32.6204L592.068 35.7616L598.571 37.0693L606.796 37.6071L607.334 35.8716L601.052 31.7527L607.334 24.6149L623.577 20.496V18.6504H617.087L616.537 19.2004H606.478L596.297 23.9549L590.553 32.6204Z" fill="black" stroke="black" stroke-miterlimit="10"/>
<path d="M661.809 9.98425L671.88 13.3454L682.929 13.8831V11.182L669.069 6.95312L661.809 9.98425Z" fill="black" stroke="black" stroke-miterlimit="10"/>
<path d="M685.092 11.9395V16.3761H688.673L696.141 15.0806V13.8828L689.431 11.9395H685.092Z" fill="black" stroke="black" stroke-miterlimit="10"/>
<path d="M775.415 20.9219L775.952 23.3052L783.212 25.1508L793.931 23.953V22.1197L775.415 20.9219Z" fill="black" stroke="black" stroke-miterlimit="10"/>
<path d="M797.292 23.0371V24.1738L808.329 25.1516V23.0371H797.292Z" fill="black" stroke="black" stroke-miterlimit="10"/>
<path d="M791.548 26.2266V28.4021L799.773 29.5877V28.5121L791.548 26.2266Z" fill="black" stroke="black" stroke-miterlimit="10"/>
<path d="M890.365 35.5163L892.969 37.3863L899.141 36.4574V34.8685L893.946 34.2207L890.365 35.5163Z" fill="black" stroke="black" stroke-miterlimit="10"/>
<path d="M864.613 91.3223L885.134 111.831L884.193 112.357L881.834 109.998H879.487L881.272 115.522L888.336 121.12L887.358 121.536L884.523 120.228L884.84 122.587H883.63L880.294 119.262L879.402 114.545L877.006 112.149L871.934 105.451V103.581L868.035 100.978L867.302 98.5456L864.613 96.0278L865.676 94.329L863.562 91.8845L864.613 91.3223Z" fill="black" stroke="black" stroke-miterlimit="10"/>
<path d="M924.428 54.2789L926.922 53.7412L940.562 58.0678L943.055 56.3323L939.156 53.9489L941.002 53.4112L939.926 51.2478L929.525 47.7767H924.221L889.998 40.0889L877.226 39.0011L880.037 41.2744L878.852 42.46L870.724 39.3678H849.445L847.123 37.0455L831.197 36.7155L819.403 34.2222V32.8166L795.569 30.7633L796.975 34.9922L779.974 33.3666V37.0455L765.026 28.0622H753.867V30.3355L741.412 28.71L724.839 27.7322L713.68 30.5555V29.7977L723.971 24.4933V23.0877L718.239 19.9466H705.894V18.651H700.59V17.3555H692.682V20.2766L666.685 24.3955L667.981 28.5144H655.526L658.668 31.9855L657.58 33.1833L653.461 32.0955L649.342 33.0733L645.125 29.0644H643.94L645.565 32.4255L643.402 34.1611L648.389 41.3111L656.076 41.9589L659.645 46.0778L658.68 46.7256L655.539 43.8044H651.75L648.829 51.1745L645.907 49.9889L648.181 44.3545L644.392 42.7289L641.581 36.9844L639.527 34.9311V30.4944H630.544V33.9655L629.249 35.2611L629.579 39.49L637.156 42.8511L636.289 45.3445L627.085 41.4456L610.842 37.2167L610.414 39.0622L617.344 42.5333L614.203 44.9167L612.797 41.9956L605.061 43.89L604.034 44.9167H601.113V42.7533L587.571 47.3V49.4878H583.268L581.508 47.7278V45.9433H583.513L581.508 43.9389H577.609V47.8378L579.773 48.9256L578.905 51.6389L574.248 50.3434L569.702 53.7045L571.535 56.7356L562.332 54.7923L561.892 56.5278L565.791 57.6156L565.901 59.3512L557.993 57.3956L557.015 52.7389L551.063 49.5978V48.3022L568.125 52.8L571.535 49.39L570.349 46.5789L556.379 42.0322L545 39.9789V39.8078L540.344 41.8244V44.9656L543.974 46.0533L541.969 49.5245L545.22 53.0934V56.8823L546.736 58.3978V60.4512L549.657 63.3723V64.8634L543.375 69.9845L545 71.6101H547.922V72.8079H545.318L542.617 74.2012L542.666 75.4601L541.26 76.5968L543.045 79.9579L541.859 80.7768V82.0235H543.705V83.539L545 86.1424L552.468 87.6091V90.5913L558.213 94.3802V96.4335H554.473V100.552H562.601L568.418 106.37H573.918L575.581 108.032H581.716V114.791H577.597V118.409L580.518 117.712V118.788L578.355 120.194H576.681V120.951L578.465 122.137L576.949 123.115V124.581L575.324 125.009L579.223 127.478H581.411C581.411 127.478 583.537 129.605 585.688 131.756L587.277 131.401L596.921 135.031H600.331L606.344 137.745L609.155 140.507L611.453 137.94L607.273 134.017V130.228L604.022 128.823V126.549L606.515 124.056H608.251L610.463 121.831L605.586 116.955H602.506V114.082H600.343V107.262L602.298 105.307L605.488 108.497L606.735 107.25L604.682 105.197L611.282 101.628H616.158L625.692 105.747L627.635 103.791H632.83L634.724 105.686H641.385V102.594L636.839 100.968L638.244 96.8491L636.949 94.2457L638.134 92.9502L656.651 88.1835L662.603 88.2935L665.096 92.5224H672.784V95.3335H675.705L680.313 90.7257V93.158L694.772 104.855L697.045 102.96L699.429 105.185L704.843 104.207L710.857 110.22H715.672L720.219 111.247L729.752 105.234H736.572V107.837H747.291V104.427L745.666 102.801V99.3913L757.032 102.96L760.87 106.798H765.319L766.749 105.368L776.857 108.644L778.959 110.587H791.572L794.824 107.336L805.75 109.78L808.354 107.055V99.3791L805.75 96.7757L807.62 94.9057H819.403L834.143 109.646H841.012L847.978 116.612H853.038V113.508H859.052V125.523H854.016L859.113 134.017L860.029 133.1H867.937L872.484 113.496L866.752 100.394L863.391 96.1646L853.539 91.838V94.5391L841.305 90.5302L848.455 73.419H868.927L873.266 74.9346V77.0001L880.624 74.7268V73.3212H877.373V65.4134H885.171L889.289 69.5323L892.431 66.3912L890.585 63.7878L893.946 63.6779L896.867 68.1145L894.056 75.6923L895.462 77.0979L892.699 84.0768L912.891 104.268L916.521 100.638L914.626 98.7435L917.23 96.1402L913.538 92.4613H916.631V90.7868L913.38 87.5357L914.944 85.959L908.882 79.4568H905.313L901.524 71.989H906.181L907.366 73.1745H909.102V71.0601H918.036L924.917 64.179L931.517 64.9367L931.627 63.5312L919.283 57.4689L921.556 55.4156L918.195 53.0323L919.821 52.1645L924.477 54.3278L924.428 54.2789ZM771.943 96.348L768.045 99.5991V101.225L763.828 102.85L760.577 101.225L765.282 99.758V97.9735L766.908 96.348L769.108 94.1602V87.2546H770.159L771.943 92.2902V96.348Z" fill="black" stroke="black" stroke-miterlimit="10"/>
<path d="M409.811 54.0688L413.709 59.911L422.375 61.6466L436.015 54.0688L431.908 50.5977L418.036 53.4088L415.653 50.5977L409.811 54.0688Z" fill="black" stroke="black" stroke-miterlimit="10"/>
<path d="M849.812 206.98L853.82 212.174H855.336V200.05L852.513 199.5L849.812 206.98Z" fill="black" stroke="black" stroke-miterlimit="10"/>
<path d="M815.919 221.917V225.608H819.818L822.141 223.274V220.939H817.753L815.919 221.917Z" fill="black" stroke="black" stroke-miterlimit="10"/>
<path d="M846.011 138.856L847.355 137.829L850.667 138.856L850.154 137.132L853.943 134.993V133.453L854.591 132.94L856.461 133.967H859.04L859.076 133.93L853.98 125.436H859.015V113.409H853.002V116.513H847.954L840.987 109.547H834.119L819.378 94.8066H807.596L805.738 96.6766L808.33 99.28V106.956L805.738 109.681L802.328 108.911V114.876H811.018L818.645 119.508V120.645H808.097V124.458H803.538V127.012H800.092L798.674 125.595H796.877V128.271L799.481 130.545L796.963 132.097V134.126L794.604 135.58H787.222L782.589 138.758L771.944 136.643V134.847H754.185L749.528 128.895L741.84 124.776H733.285V120.339L727.76 115.902L720.293 112.333L719.914 111.074L717.127 110.439V113.323H714.756V115.242L716.174 116.66V118.176H708.596V122.612L710.001 124.03V125.35L706.64 124.678L702.754 126.083L707.3 132.256L706.432 135.715L706.31 135.69L706.591 137.89H704.856H703.389V140.762H697.547V143.463H694.296V142.486L690.238 144.27V146.446L689.676 146.409V148.658L691.02 150.015L691.961 149.086L695.604 150.687L695.115 152.887L696.166 154.182L694.699 155.478H697.229L699.661 157.678V159.792L706.164 162.225L710.05 159.866L714.206 161.577V164.742L712.861 166.087V166.93H710.466L711.444 169.375H713.387L714.206 171.562L712.654 172.944L711.358 171.807L710.05 172.944L712.165 174.728L712.091 176.684L720.61 181.719L722.566 179.764L741.168 190.324L746.033 188.869L747.01 189.431V191.705H747.903L750.347 187.891L755.872 190.079H759.282V188.943L763.902 184.323L766.908 185.618L769.108 184.078L771.785 186.107L770.404 187.561L773.899 188.698L774.865 187.561L778.776 191.057V198.451L777.065 200.15V204.697H781.367L782.186 207.789H784.459V211.603H786.562V213.876H790.546V215.013H792.416V210.393H793.626V209.256H799.811L801.84 208.596V206.811H803.294L805.091 208.596H808.097V211.529L812.864 213.876L813.964 212.397L819.598 213.803V217.909H821.432L821.114 214.23L838.115 208.168L846.133 199.503L851.645 187.806V182.501L846.451 180.766L849.054 177.515L840.719 166.698L835.622 163.985L839.093 155.857H843.102V154.244L836.441 152.239L832.75 155.918L825.441 148.609L834.167 139.895L837.956 143.683L834.595 147.032L836.82 149.257L843.53 144.93L846.756 140.371L846.011 138.856Z" fill="black" stroke="black" stroke-miterlimit="10"/>
<path d="M681.414 140.21L677.515 138.804L679.47 136.641L678.529 136.103L678.81 135.712V134.197H685.532V132.791H687.904L689.382 134.258H701.666L706.432 135.712L706.591 137.888H703.389V140.76H697.547V143.461H694.296V142.483L690.238 144.268V146.443L688.185 146.333V147.201L680.741 146.847L680.277 146.382H676.109L675.559 145.136L677.894 143.571L680.008 144.598L680.13 143.962L683.797 143.999L686.18 141.615L681.414 138.804V140.21Z" fill="black" stroke="black" stroke-miterlimit="10"/>
<path d="M859.235 150.124L854.138 146.005L858.795 141.348L857.279 138.855L857.878 135.127L859.039 133.966H856.46L854.59 132.939L853.943 133.453V134.993L850.154 137.132L850.667 138.855L847.355 137.828L846.01 138.855L846.756 140.371L843.529 144.929L847.758 146.543L847.208 151.75L856.192 153.265L859.247 150.136L859.235 150.124Z" fill="black" stroke="black" stroke-miterlimit="10"/>
<path d="M866.373 156.723L859.247 150.135L856.192 153.264H856.204L856.412 155.207L854.249 156.405L857.927 159.656L859.015 165.388L866.813 163.005L866.373 156.723Z" fill="black" stroke="black" stroke-miterlimit="10"/>
<path d="M812.021 302.923H808.342V296.971H805.946V293.61L787.76 279.75L785.804 274.543H781.05L779.522 273.027H775.415L789.055 287.107V294.587H791.438L795.557 304.219L807.462 316.135H812.021V302.923Z" fill="black" stroke="black" stroke-miterlimit="10"/>
<path d="M834.106 319.816L827.714 318.3V320.463L820.356 319.816V318.19L813.206 316.895L809.417 319.926L814.074 320.573L813.536 321.869L839.203 327.076V323.067L834.106 321.979V319.816Z" fill="black" stroke="black" stroke-miterlimit="10"/>
<path d="M855.227 325.009L850.032 324.361L848.944 326.256L840.719 325.009V326.745L848.077 328.15L855.227 327.075V325.009Z" fill="black" stroke="black" stroke-miterlimit="10"/>
<path d="M874.77 324.826L856.656 326.256V327.075H862.914L874.77 326.256V324.826Z" fill="black" stroke="black" stroke-miterlimit="10"/>
<path d="M854.065 329.617V331.316H856.657L858.527 333.186L860.36 331.365L858.001 329.006L854.065 329.617Z" fill="black" stroke="black" stroke-miterlimit="10"/>
<path d="M875.833 326.256L868.109 333.186L870.382 333.846L881.92 326.256L881.272 324.826L875.833 326.256Z" fill="black" stroke="black" stroke-miterlimit="10"/>
<path d="M820.576 304.329L817.325 303.254L816.029 305.417L818.84 307.043L820.576 304.329Z" fill="black" stroke="black" stroke-miterlimit="10"/>
<path d="M812.668 301.837V305.736H814.611V303.793L813.426 300.114L810.175 299.674L810.713 301.837H812.668Z" fill="black" stroke="black" stroke-miterlimit="10"/>
<path d="M879.597 301.675L873.205 300.318V302.384H878.4V303.899L879.597 301.675Z" fill="black" stroke="black" stroke-miterlimit="10"/>
<path d="M878.84 305.734V307.25L881.223 309.315L883.056 307.519L881.92 305.734H878.84Z" fill="black" stroke="black" stroke-miterlimit="10"/>
<path d="M885.012 305.197L886.515 307.519H890.964L893.237 309.316L894.973 307.519L893.237 305.197H885.012Z" fill="black" stroke="black" stroke-miterlimit="10"/>
<path d="M885.757 294.797V292.744L888.471 293.612V292.206L887.359 291.094L888.471 288.197H886.637L888.471 285.386L887.065 284.836L885.012 285.814L883.056 291.448L884.034 292.744V294.907H882.519V296.973H886.955L885.757 294.797Z" fill="black" stroke="black" stroke-miterlimit="10"/>
<path d="M896.318 294.745L893.458 294.098V296.212H896.318V294.745Z" fill="black" stroke="black" stroke-miterlimit="10"/>
<path d="M917.499 299.232L915.544 301.188V303.253H913.71L910.349 306.602H907.098V303.033H905.912L906.658 299.452L905.692 296.751H903.309L902.331 295.773H899.52L898.322 296.971H893.128L894.974 300.54H899.08V302.703H903.847V304.219H898.322V305.197L902.881 309.316L904.177 307.519L918.037 314.84L920.2 322.308H917.279L916.411 324.911H924.319L926.483 329.018L928.866 329.299V304.476L917.499 299.232Z" fill="black" stroke="black" stroke-miterlimit="10"/>
<path d="M854.64 307.8H856.656V315.158H859.553V305.734L861.826 303.461L862.963 304.598V308.338L864.075 309.45V312.457H865.713V311.369H868.866V309.425H867.461L865.664 307.629L867.082 306.223L863.562 302.703L869.135 297.13V295.993L866.618 298.511H863.892L862.816 299.586H860.36V297.936H859.443V293.17L861.179 292.314L873.413 293.39L877.666 289.136L876.725 288.195L873.181 291.74L862.376 289.271L857.879 291.764V296.971H856.656V301.615L854.64 303.644V307.8Z" fill="black" stroke="black" stroke-miterlimit="10"/>
<path d="M825.649 305.734H831.723V307.042H835.732V305.734H840.719V310.721L846.353 308.338V300.858L850.619 296.592V290.799H855.227L855.764 289.271L852.513 286.032L853.393 285.152L849.824 281.571L851.707 279.689L849.995 278.283H844.557V282.427L841.305 289.821H837.419L836.441 288.843H834.327L832.371 290.799H828.228L826.321 288.574H824.903L824.304 286.24L821.09 289.467V294.588L825.649 299.147V305.734Z" fill="black" stroke="black" stroke-miterlimit="10"/>
<path d="M849.372 266.432L842.772 276.063L841.745 275.036L834.485 282.296L829.78 282.785V288.578H826.321L828.227 290.803H832.371L834.326 288.847H836.441L837.419 289.825H841.305L844.556 282.431V278.287H849.995L851.706 279.693L857.17 274.229L849.372 266.432Z" fill="black" stroke="black" stroke-miterlimit="10"/>
<path d="M804.003 275.743L799.737 271.087L797.036 273.03H795.582V271.062L792.978 269.266L792 270.133L793.064 271.307L793.932 278.347L797.073 281.488V283.651L804.871 290.043L806.496 291.987H807.572L807.902 287.44L804.003 283.541V275.743Z" fill="black" stroke="black" stroke-miterlimit="10"/>
<path d="M680.656 153.693V150.234H684.775V156.358L690.507 154.243L695.579 153.461L695.115 152.886L695.604 150.686L691.961 149.085L691.02 150.014L689.676 148.658V146.409L688.185 146.335V147.203L680.741 146.849L680.277 146.384H676.109L675.559 145.138L677.894 143.573L680.008 144.6L680.13 143.964L678.7 142.754L679.678 141.886L677.979 140.945L673.909 145.578H670.744V147.276L674.728 151.75L673.237 154.426L674.594 156.358L680.656 153.693Z" fill="black" stroke="black" stroke-miterlimit="10"/>
<path d="M670.634 183.697L673.261 182.56V178.735L674.532 177.464H676.916V176.168L678.321 174.97H680.485V176.168H681.744V170.375H684.53V169.287L682.55 167.881V167.172H686.779V160.841L685.093 159.167V157.321L689.431 155.732L693.978 156.356L695.188 155.476H694.699L696.166 154.18L695.579 153.459L690.507 154.241L684.775 156.356V150.232H680.656V153.691L674.594 156.356L673.237 154.425L673.017 154.828L669.228 153.63V154.29H664.351V158.238L659.915 160.035V161.868H657.641L653.583 160.401V168.419L654.451 169.287L656.175 176.437H658.668V179.138L656.016 181.79L656.981 182.756L661.54 183.697H670.634Z" fill="black" stroke="black" stroke-miterlimit="10"/>
<path d="M691.082 203.18V200.149L687.928 196.996V194.307H685.313V192.461L688.026 189.748H689.676L690.422 190.493H692.89L693.538 186.839L696.056 184.321V182.036H697.755V179.848L699.6 178.002V174.727L700.566 173.761V172.502H698.366V170.388L696.178 168.212V166.281L695.103 165.205V164.093H701.568L704.783 161.71L699.662 159.791V157.677L697.229 155.477H695.188L693.978 156.357L689.432 155.733L685.093 157.322V159.168L686.779 160.842V167.173H682.55V167.882L684.53 169.288V170.376H681.744V176.169H680.485V174.971H678.321L676.916 176.169V177.464H674.533L673.262 178.736V182.561L670.634 183.698H661.54L656.981 182.757L661.589 187.377H663.325V191.703H665.928V194.417H662.897L660.844 196.47V199.037L661.589 199.183H677.515L683.687 205.356V203.18H691.082Z" fill="black" stroke="black" stroke-miterlimit="10"/>
<path d="M718.667 186.594L730.119 192.84L740.838 195.113L745.385 195.528L746.118 194.306L745.067 192.436L744.884 189.21L741.168 190.322L722.566 179.762L720.61 181.717L719.853 181.265L718.667 182.695V186.594Z" fill="black" stroke="black" stroke-miterlimit="10"/>
<path d="M751.802 194.464L752.51 193.413L757.485 194.464L757.974 191.861L755.701 191.384L755.81 190.052L750.347 187.889L747.903 191.702H747.463L747.255 193.328L751.802 194.464Z" fill="black" stroke="black" stroke-miterlimit="10"/>
<path d="M760.406 205.514H759.11V207.946H757.081V203.278H758.499L760.821 200.968L759.526 199.66H750.994V197.435H749.491L747.743 195.688L746.032 197.399L748.721 200.075H746.851V203.314H748.318L749.283 204.292L748.636 205.429L751.544 213.288L757.106 211.198V209.254H759.171L761.335 214.669L761.347 214.681L763.009 214.204L760.406 205.514Z" fill="black" stroke="black" stroke-miterlimit="10"/>
<g filter="url(#filter0_d_361_391)">
<path d="M764.476 210.549L763.01 209.412V207.872H764.146V205.183H766.505L768.045 200.808L766.933 199.683L768.338 198.278V194.99L770.807 192.521H773.13V190.932L773.814 190.248V188.671L770.404 187.559L771.785 186.104L769.108 184.076L766.908 185.616L763.902 184.32L759.282 188.94V190.077H755.872L755.811 190.052L755.701 191.385L757.974 191.861L757.485 194.465L752.511 193.413L751.802 194.465L747.255 193.328L747.463 191.702H747.011V189.429L746.033 188.867L744.884 189.209L745.067 192.436L746.118 194.306L745.385 195.528L740.838 195.112L730.119 192.839L718.667 186.593V182.694L719.853 181.264L712.092 176.681L712.165 174.726L710.05 172.941L711.358 171.804L712.654 172.941L714.206 171.56L713.387 169.372H711.444L710.466 166.928H712.862V166.084L714.206 164.74V161.574L710.05 159.863L706.164 162.222L704.783 161.709L701.568 164.092H695.103V165.204L696.178 166.28V168.211L698.366 170.387V172.501H700.566V173.76L699.6 174.726V178.001L697.755 179.847V182.034H696.056V184.32L693.538 186.838L692.89 190.492H690.421L689.676 189.747H688.026L685.313 192.46V194.306H687.928V196.995L691.081 200.148V203.179H683.687V205.355L686.718 208.386H690.287V210.28H686.119L693.269 217.43L696.142 214.558V210.659H697.877L701.874 232.427L707.3 241.092V243.574L713.852 256.358V260.636L716.822 263.618H719.963V259.279H722.126V255.27H724.949V233.942L731.452 232.965V230.691L739.677 221.158L744.334 217.699V214.448L749.308 211.955V214.118L751.545 213.287L748.636 205.428L749.284 204.291L748.318 203.313H746.852V200.075H748.722L746.033 197.398L747.744 195.687L749.492 197.435H750.995V199.659H759.526L760.822 200.967L758.5 203.277H757.082V207.946H759.111V205.513H760.406L762.24 211.6H764.476V210.549Z" fill="#3578E2"/>
<path d="M764.476 210.549L763.01 209.412V207.872H764.146V205.183H766.505L768.045 200.808L766.933 199.683L768.338 198.278V194.99L770.807 192.521H773.13V190.932L773.814 190.248V188.671L770.404 187.559L771.785 186.104L769.108 184.076L766.908 185.616L763.902 184.32L759.282 188.94V190.077H755.872L755.811 190.052L755.701 191.385L757.974 191.861L757.485 194.465L752.511 193.413L751.802 194.465L747.255 193.328L747.463 191.702H747.011V189.429L746.033 188.867L744.884 189.209L745.067 192.436L746.118 194.306L745.385 195.528L740.838 195.112L730.119 192.839L718.667 186.593V182.694L719.853 181.264L712.092 176.681L712.165 174.726L710.05 172.941L711.358 171.804L712.654 172.941L714.206 171.56L713.387 169.372H711.444L710.466 166.928H712.862V166.084L714.206 164.74V161.574L710.05 159.863L706.164 162.222L704.783 161.709L701.568 164.092H695.103V165.204L696.178 166.28V168.211L698.366 170.387V172.501H700.566V173.76L699.6 174.726V178.001L697.755 179.847V182.034H696.056V184.32L693.538 186.838L692.89 190.492H690.421L689.676 189.747H688.026L685.313 192.46V194.306H687.928V196.995L691.081 200.148V203.179H683.687V205.355L686.718 208.386H690.287V210.28H686.119L693.269 217.43L696.142 214.558V210.659H697.877L701.874 232.427L707.3 241.092V243.574L713.852 256.358V260.636L716.822 263.618H719.963V259.279H722.126V255.27H724.949V233.942L731.452 232.965V230.691L739.677 221.158L744.334 217.699V214.448L749.308 211.955V214.118L751.545 213.287L748.636 205.428L749.284 204.291L748.318 203.313H746.852V200.075H748.722L746.033 197.398L747.744 195.687L749.492 197.435H750.995V199.659H759.526L760.822 200.967L758.5 203.277H757.082V207.946H759.111V205.513H760.406L762.24 211.6H764.476V210.549Z" stroke="#3578E2" stroke-miterlimit="10"/>
</g>
<path d="M789.373 250.027L787.503 246.531V242.595L784.044 238.733V236.741H785.425V233.49L780.561 226.022V220.375H784.374V218.994H785.841V217.906H787.454L790.326 213.873H786.562V211.6H784.459V207.786H782.186L781.367 204.694H777.065V200.148L778.776 198.449V191.054L774.865 187.559L773.899 188.695L773.814 188.671V190.247L773.129 190.932V192.521H770.807L768.338 194.99V198.278L766.933 199.683L768.045 200.808L766.505 205.183H764.146V207.872H763.009V209.412L764.476 210.549V211.6H762.239L763.009 214.203L761.347 214.68L770.428 227.978V235.128H774.767L778.116 232.427L778.336 229.285L781.367 233.502L786.452 248.34L785.951 260.098L789.373 251.273V250.027Z" fill="black" stroke="black" stroke-miterlimit="10"/>
<path d="M798.747 247.045L797.721 243.525L800.593 240.653H807.303V235.617L804.712 233.026V228.638L801.73 225.656H799.566L797.122 228.088L795.496 226.463L793.015 228.956H791.817V221.158H789.324V218.616L787.613 217.699L787.454 217.907H785.841V218.995H784.374V220.376H780.561V226.023L785.425 233.49V236.741H784.044V238.734L787.503 242.596V246.532L789.373 250.027V251.274L785.951 260.098L785.804 263.288L792.001 270.133L792.978 269.265L795.582 271.062V273.029H797.036L799.737 271.086L797.073 268.165H794.262L791.438 259.817H789.385L788.407 257.654L790.461 249.428V244.332H793.932V247.045H796.853L797.941 249.538L799.456 248.988L799.725 249.233L799.835 247.045H798.747Z" fill="black" stroke="black" stroke-miterlimit="10"/>
<path d="M817.863 235.995L806.606 222.245L812.864 213.873L808.097 211.526V208.593H805.091L803.294 206.809H801.839V208.593L799.811 209.253H793.626V210.39H793.553L796.156 212.981V214.875L799.505 216.721L800.153 216.073L804.479 219.532L803.135 220.876H801.876L801.094 221.659L813.83 234.394L813.133 235.091L814.917 236.863L815.919 247.912L810.603 250.185V252.618H811.581V253.754H808.012V255.465H806.508L807.364 256.248V261.992H809.087L820.784 251.481L821.334 246.934L817.863 235.995Z" fill="black" stroke="black" stroke-miterlimit="10"/>
<path d="M810.603 250.187L815.919 247.914L815.198 240.055H810.334V242.609L805.897 240.654H800.592L797.72 243.526L798.747 247.046H799.835L799.725 249.234L801.766 253.56L804.455 253.585L806.508 255.467H808.011V253.756H811.58V252.619H810.603V250.187Z" fill="black" stroke="black" stroke-miterlimit="10"/>
<path d="M574.261 184.347L575.471 177.943V171.563H576.583L578.502 173.482H579.944L585.297 169.9L586.923 174.007L581.24 176.684L583.44 179.202L582.621 181.878H580.262L578.392 185.533L574.261 184.347Z" fill="black" stroke="black" stroke-miterlimit="10"/>
<path d="M996.931 370.464L995.147 365.355L993.032 366.492L995.794 373.887L1002.37 380.621L1004.15 378.751L996.931 370.464Z" fill="black" stroke="black" stroke-miterlimit="10"/>
<path d="M727.76 115.902L733.285 120.338V124.775H741.84L749.528 128.894L754.185 134.846H771.944V136.643L782.589 138.757L787.222 135.579H794.604L796.963 134.125V132.096L799.48 130.544L796.877 128.271V125.594H798.674L800.092 127.012H803.538V124.457H808.097V120.644H818.645V119.507L811.018 114.875H802.328V108.91L794.799 107.236L791.548 110.487H778.935L776.82 108.532L766.713 105.256L765.283 106.686H760.834L756.996 102.848L745.629 99.2793V102.689L747.255 104.315V107.725H736.536V105.122H729.716L720.182 111.135L719.914 111.074L720.292 112.333L727.76 115.902Z" fill="black" stroke="black" stroke-miterlimit="10"/>
<path d="M445.145 200.893L475.004 223.712L481.824 221.915L501.025 206.784L501.807 206.161V202.262H494.816L492.384 196.42V180.983L486.542 165.717L489.463 163.933L489.328 155.23H483.376L480.039 157.027L478.817 156.135L467.45 157.345L463.71 159.789H462.011L457.294 162.27H457.147L458.919 174.004H453.725V178.221L434.829 186.837V190.626V193.009L435.257 193.339V192.521V193.339L445.145 200.893Z" fill="black" stroke="black" stroke-miterlimit="10"/>
<path d="M582.413 230.609V241.254L586.923 239.054L593.181 240.154L600.722 247.732L600.82 247.83L602.58 246.351L592.069 236.647L588.512 226.404L584.369 230.609H582.413Z" fill="black" stroke="black" stroke-miterlimit="10"/>
<path d="M600.722 247.729L598.95 250.405V254.109L602.874 253.754L605.697 250.76L603.326 247.044L602.58 246.348L600.82 247.827L600.722 247.729Z" fill="black" stroke="black" stroke-miterlimit="10"/>
<path d="M534.673 243.966V235.569H540.992V219.081H539.733V221.269L514.641 206.248L510.998 208.644L511.304 208.766L514.641 218.776V231.34L505.303 243.966H506.195L508.016 249.527L511.634 245.555L512.208 257.093H508.713L508.065 259.28L513.101 265.783L512.465 266.883L516.425 265.086L517.403 266.345L523.978 260.539H528.562L536.873 253.084L537.814 252.24L534.673 243.966Z" fill="black" stroke="black" stroke-miterlimit="10"/>
<path d="M542.715 211.747V219.08H540.992V235.568H534.673V243.964L537.814 252.239L536.873 253.082L540.711 256.932V261.711L551.686 272.699V275.486L563.371 280.02H572.085L574.114 277.991L574.64 277.478H580.91V272.711L573.662 265.451H570.411V262.53H574.2L582.413 246.898V241.899V241.251V230.606H584.369L588.512 226.401L588.5 226.364L584.063 224.739L582.865 212.492L578.209 208.923L576.73 205.855L570.839 211.747H542.715Z" fill="black" stroke="black" stroke-miterlimit="10"/>
<path d="M570.839 211.746L576.73 205.855L564.887 181.41H566.402L571.927 189.648H572.904L573.882 183.794L570.924 177.817H565.4L561.904 175.861L555.255 179.198L547.702 176.277H542.715V211.746H570.839Z" fill="black" stroke="black" stroke-miterlimit="10"/>
<path d="M420.101 206.76H423.89V196.897H435.257V193.34L434.829 193.01V190.627H420.859L414.577 201.126L410.898 204.597L409.113 209.523L406.999 211.637V214.558H420.101V206.76Z" fill="black" stroke="black" stroke-miterlimit="10"/>
<path d="M556.331 356.642L550.379 361.409H545.013L547.775 371.04H552.567L556.465 378.838H563.053H563.945L568.969 368.364V358.684L565.155 354.882H561.305V352.426L556.331 354.149V356.642Z" fill="black" stroke="black" stroke-miterlimit="10"/>
<path d="M560.498 298.146L556.917 304.649H558.054H560.73V303.341H563.615V299.674H560.498V298.146Z" fill="black" stroke="black" stroke-miterlimit="10"/>
<path d="M562.015 396.488H565.816L566.781 394.765H565.816V391.941H562.015V396.488Z" fill="black" stroke="black" stroke-miterlimit="10"/>
<path d="M421.935 239.784V236.216H423.89H443.165V201.125L445.145 200.893L435.257 193.34V196.897H423.89V206.76H420.101V214.558H406.999V215.315L408.405 217.907V232.634H415.555L421.935 239.784Z" fill="black" stroke="black" stroke-miterlimit="10"/>
<path d="M460.826 237.428H459.335L451.207 244.504L448.689 243.844L443.568 254.49H444.143L447.712 258.059H452.833V253.781L458.333 253.353H461.437H464.53L465.006 252.84L468.905 248.636L460.826 237.428Z" fill="black" stroke="black" stroke-miterlimit="10"/>
<path d="M560.731 304.648H558.054L560.144 310.624L563.615 306.628V303.34H560.731V304.648Z" fill="black" stroke="black" stroke-miterlimit="10"/>
<path d="M537.814 359.013L534.135 355.334V342.88H540.637V336.121H534.294V321.98H530.395V319.547L525.518 320.354V325.072H519.676L516.914 317.115H502.369L506.415 327.724H504.569L507.062 335.094V340.289L500.45 353.171V359.991H530.236L537.814 359.013Z" fill="black" stroke="black" stroke-miterlimit="10"/>
<path d="M501.111 303.145H508.016V296.154L507.185 295.323V293.428L509.41 291.204L507.54 289.334H505.095V285.924H499.253V290.959H493.985L490.709 298.158L498.214 309.256L501.111 307.325V303.145Z" fill="black" stroke="black" stroke-miterlimit="10"/>
<path d="M499.253 285.924H494.01V290.898L493.985 290.959H499.253V285.924Z" fill="black" stroke="black" stroke-miterlimit="10"/>
<path d="M423.89 247.157V245.886V236.218H421.935V239.787L415.555 232.637H408.405V234.812L406.999 238.711V247.157H417.095H423.89Z" fill="black" stroke="black" stroke-miterlimit="10"/>
<path d="M596.603 283.088L599.133 280.57L595.54 276.977L592.778 279.751V281.047H587.815L584.247 277.478H580.91H574.64L574.114 277.991L578.808 287.097L574.31 293.733L576.094 294.259V297.999L575.104 298.989L586.691 305.418L586.117 308.339L591.861 311.944L598.241 300.113L598.571 299.747L596.603 297.779V283.088Z" fill="black" stroke="black" stroke-miterlimit="10"/>
<path d="M505.095 285.925H514.641V282.918L509.605 271.955L512.465 266.883L513.101 265.783L508.065 259.28L508.713 257.093H512.209L511.634 245.555L508.017 249.527L508.713 251.641L499.375 270.415L496.931 267.726H493.277L489.659 276.636H490.245L494.01 280.4V285.925H499.253H505.095Z" fill="black" stroke="black" stroke-miterlimit="10"/>
<path d="M586.691 305.418L575.104 298.989L572.684 301.409V303.793H567.71V297.779H563.615V299.674V303.34V306.628L560.144 310.625L559.802 311.016L564.911 326.856L574.982 330.181L575.996 333.835L577.182 338.064H587.253L594.99 334.862V332.698H591.421V312.776L591.861 311.945L586.116 308.339L586.691 305.418Z" fill="black" stroke="black" stroke-miterlimit="10"/>
<path d="M577.182 338.063L575.996 333.834L574.664 341.07L575.996 346.594H579.052V354.71L576.852 358.609L573.442 353.988L575.52 351.911V348.378H571.902L570.081 346.777L560.987 350.138L561.965 352.192L561.305 352.424V354.881H565.155L568.968 358.682V368.362L563.945 378.836H563.053L565.815 385.339V391.939V394.762H566.781H567.807V390.423L575.776 385.229V371.637L594.99 352.412V334.861L587.253 338.063H577.182Z" fill="black" stroke="black" stroke-miterlimit="10"/>
<path d="M427.899 263.657L428.303 263.18L425.296 257.094H420.419L419.393 259.88L419.551 260.039V265.674L423.78 268.619L427.899 263.657Z" fill="black" stroke="black" stroke-miterlimit="10"/>
<path d="M434.475 268.861V265.695L427.899 263.654L423.78 268.617L436.821 277.747L437.726 272.112L434.475 268.861Z" fill="black" stroke="black" stroke-miterlimit="10"/>
<path d="M406.999 247.154V247.802L412.805 253.461L417.095 247.154H406.999Z" fill="black" stroke="black" stroke-miterlimit="10"/>
<path d="M458.333 253.352L452.833 253.779V258.057H454.006V263.948L452.185 265.782V275.388L455.51 276.611L464.358 271.746L461.437 253.352H458.333Z" fill="black" stroke="black" stroke-miterlimit="10"/>
<path d="M469.638 247.828L468.905 248.635L465.006 252.839L464.529 253.353L467.047 256.518C467.047 256.518 467.377 266.284 467.487 270.024L467.536 269.999H470.787V260.906L474.442 255.064V250.187L469.65 247.828H469.638Z" fill="black" stroke="black" stroke-miterlimit="10"/>
<path d="M464.529 253.352H461.449L464.37 271.746L467.499 270.035C467.377 266.295 467.059 256.529 467.059 256.529L464.541 253.364L464.529 253.352Z" fill="black" stroke="black" stroke-miterlimit="10"/>
<path d="M434.829 186.839L453.725 178.223V174.006H458.919L457.147 162.272H449.288L447.308 160.305H444.901L441.979 166.697L434.292 171.244L433.962 173.077L431.358 177.196L432.556 180.875L425.626 190.078H421.177L420.859 190.628H434.829V186.839Z" fill="black" stroke="black" stroke-miterlimit="10"/>
<path d="M518.698 400.608V402.075L524.064 402.881L527.046 401.17V377.215H530.664V363.135L537.704 361.411L545.171 361.973L545.013 361.411H543.986V361.13V359.676H538.461L537.814 359.016L530.236 359.993H500.45V361.839L509.764 380.893L514.53 401.586H515.716L515.789 401.708L517.134 399.471L518.698 400.608Z" fill="black" stroke="black" stroke-miterlimit="10"/>
<path d="M529.418 395.166H532.669L536.164 389.067H538.682L539.819 391.145H544.695L556.282 378.471L552.566 371.039H547.775L545.172 361.97L537.704 361.408L530.664 363.132V377.212H527.046V387.979L529.906 391.939L529.418 395.166Z" fill="black" stroke="black" stroke-miterlimit="10"/>
<path d="M566.781 394.765L565.815 396.488H562.014V391.942H565.815V385.342L563.053 378.839H556.465L556.282 378.473L544.695 391.147H539.819L538.682 389.069H536.164L532.668 395.168H529.417L529.906 391.942L527.046 387.982V401.169L524.064 402.88L518.698 402.074V400.607L517.134 399.471L515.79 401.707L521.461 412.952V417.828H519.077L525.8 424.538L547.286 419.613L567.808 399.092V394.765H566.781Z" fill="black" stroke="black" stroke-miterlimit="10"/>
<path d="M605.501 359.564V363.242L606.528 364.269V369.415L604.523 374.181H603.228L601.651 375.758V379.706L603.79 381.845V386.196L605.391 389.129H607.444V390.205H610.158L611.343 389.019H614.374L617.845 377.97L624.128 362.815V358.696L625.423 356.202L624.018 352.414L625.423 351.326L626.401 354.039L627.917 351.326L626.511 349.162V342.88L623.529 339.91L622.282 341.157V344.616H619.581V348.955L613.726 353.281H607.334V356.752L605.501 359.564Z" fill="black" stroke="black" stroke-miterlimit="10"/>
<path d="M466.339 236.339H473.036L476.3 233.076V223.371L475.004 223.713L445.145 200.895L443.165 201.127V236.217H423.891V245.885H432.202L435.05 254.489H443.568L448.69 243.844L451.207 244.504L459.335 237.427H460.826L461.291 238.062H464.615L466.339 236.339Z" fill="black" stroke="black" stroke-miterlimit="10"/>
<path d="M508.016 249.526L506.195 243.965H505.572L501.783 246.581L500.231 245.029H495.452L493.63 246.85H490.196L487.458 244.124L485.723 245.872H484.17L481.885 243.574H475.089V245.774L473.708 247.155V249.82L474.429 250.186V252.105V255.063L470.787 260.905V269.999H476.519L481.506 276.635H489.658L493.276 267.725H496.931L499.375 270.414L508.713 251.641L508.016 249.526Z" fill="black" stroke="black" stroke-miterlimit="10"/>
<path d="M514.641 231.34V218.775L511.304 208.765L510.998 208.643L505.926 206.785H501.025L481.824 221.916L476.299 223.371V233.075L473.036 236.339H466.338L464.615 238.062H461.291L468.905 248.634L469.638 247.828L473.708 249.82V247.155L475.089 245.774V243.574H481.885L484.171 245.872H485.723L487.458 244.124L490.196 246.85H493.631L495.452 245.029H500.231L501.783 246.581L505.572 243.965H505.303L514.641 231.34Z" fill="black" stroke="black" stroke-miterlimit="10"/>
<path d="M435.049 254.489L432.201 245.885H423.89V247.156H417.095L412.805 253.463L419.392 259.879L420.419 257.093H425.296L428.303 263.179L427.899 263.656L433.314 265.343L435.575 254.489H435.049Z" fill="black" stroke="black" stroke-miterlimit="10"/>
<path d="M452.832 258.055H447.711L444.142 254.486H443.568H435.575L433.313 265.34L434.475 265.694V268.86L437.726 272.111L436.821 277.745L437.212 278.014L441.429 274.653H450.205L452.185 275.386V265.78L454.006 263.946V258.055H452.832Z" fill="black" stroke="black" stroke-miterlimit="10"/>
<path d="M494.768 177.623H496.882V174.543H498.935V169.838L498.495 169.642L494.499 167.907V166.367L497.909 162.957V160.194H496.198V158.324L497.909 156.613V155.403L495.391 156.21V154.34H492.629L491.333 155.232H489.329L489.463 163.934L486.542 165.719L492.299 180.764H494.768V177.623Z" fill="black" stroke="black" stroke-miterlimit="10"/>
<path d="M542.336 176.279V174.006H536.567V172.136L532.51 170.669L525.763 173.835V175.863L527.107 178.186L523.978 181.315L511.548 176.768V173.676L505.792 171.647H503.103L498.935 169.838V174.543H496.882V177.623H494.767V180.765H492.298L492.384 180.985V196.421L494.816 202.264H501.807V206.162L501.025 206.786H505.926L510.998 208.644L514.641 206.248L539.733 221.269V219.081H540.992H542.715V211.748V176.279H542.336Z" fill="black" stroke="black" stroke-miterlimit="10"/>
<path d="M609.791 275.402L620.632 264.561H617.625L607.505 260.234L602.58 255.296V253.781L598.95 254.111V250.407L600.722 247.731L593.181 240.153L586.923 239.053L582.413 241.253V241.901V246.899L574.2 262.532H570.411V265.453H573.662L580.91 272.713V277.48H584.246L587.815 281.048H592.777V279.753L595.54 276.978L598.351 279.79L606.821 275.402H609.791Z" fill="black" stroke="black" stroke-miterlimit="10"/>
<path d="M608.642 255.383L605.697 250.763L602.874 253.757L602.58 253.782V255.297L607.506 260.235L617.626 264.562H620.632L609.791 275.403H606.821L598.351 279.79L599.134 280.573L596.604 283.091V297.782L598.571 299.749L622.502 273.582L629.86 255.383V249.65L608.642 255.383Z" fill="black" stroke="black" stroke-miterlimit="10"/>
<path d="M565.069 286.401L560.474 290.984L559.618 299.748L560.498 298.147V299.674H563.615V297.78H567.709V294.04L572.635 293.233L574.309 293.734L578.807 287.098L574.114 277.992L572.085 280.021H563.615V284.947L565.069 286.401Z" fill="black" stroke="black" stroke-miterlimit="10"/>
<path d="M506.305 312.348L508.713 310.625V312.348H511.072L515.24 308.18V302.277L520.544 296.973V291.558V281.047H516.266V285.276H514.641V285.924H505.095V289.334H507.539L509.409 291.204L507.185 293.428V295.322L508.016 296.154V303.145H501.111V307.325L498.214 309.256L500.891 313.216L500.964 313.399L504.679 310.625L506.305 312.348Z" fill="black" stroke="black" stroke-miterlimit="10"/>
<path d="M575.997 346.596L574.665 341.072L575.997 333.836L574.982 330.182L570.949 328.85V341.047L568.749 347.281L570.081 346.78L571.902 348.381H575.52V351.913L573.442 353.991L576.852 358.611L579.052 354.712V346.596H575.997Z" fill="black" stroke="black" stroke-miterlimit="10"/>
<path d="M564.911 326.856L564.3 324.938L557.419 325.72V326.966L555.084 329.289L556.172 330.376V334.116L555.023 336.549V338.125L556.991 340.081H560.23V344.811H557.553L553.251 340.509L552.322 337.551H550.318V339.739L545.453 338.553V337.306H542.581V336.219L541.273 335.363L540.589 336.121H540.638V342.88H534.135V355.334L537.814 359.013L538.462 359.673H543.986V361.128V361.409H545.013H550.379L556.331 356.642V354.149L561.305 352.425L561.965 352.193L560.988 350.14L568.749 347.28L570.949 341.046V328.849L564.911 326.856Z" fill="black" stroke="black" stroke-miterlimit="10"/>
<path d="M522.402 276.979L526.362 275.683L527.669 277.993L536.152 280.022L536.714 276.979L538.767 277.357L547.824 275.219H551.686V272.701L540.711 261.713V256.934L536.873 253.084L528.562 260.54H523.978L517.403 266.345L516.425 265.086L512.465 266.883L509.605 271.955L514.641 282.919V285.277H516.266V281.049H520.544L522.402 279.044V276.979Z" fill="black" stroke="black" stroke-miterlimit="10"/>
<path d="M557.419 325.721L564.3 324.939L559.802 311.018L560.145 310.627L558.055 304.65H556.918L559.619 299.749L560.475 290.985L565.07 286.402L563.616 284.948V280.022H563.371L551.687 275.488V275.219H547.825L538.768 277.358L536.714 276.979L536.152 280.022L527.67 277.993L526.362 275.683L522.402 276.979V279.044L520.544 281.049V291.56V296.974L515.24 302.279V308.182L511.072 312.35H508.713V310.627L506.306 312.35L504.68 310.627L500.964 313.401L501.05 313.646L502.37 317.117H516.914L519.677 325.073H525.519V320.356L530.396 319.549V321.981H534.294V336.122H540.589L541.273 335.364L542.581 336.22V337.308H545.453V338.555L550.318 339.74V337.552H552.322L553.251 340.51L557.553 344.812H560.23V340.082H556.991L555.023 338.127V336.55L556.172 334.118V330.378L555.085 329.29L557.419 326.968V325.721Z" fill="black" stroke="black" stroke-miterlimit="10"/>
<path d="M409.811 54.0688L413.709 59.911L422.375 61.6466L436.015 54.0688L431.908 50.5977L418.036 53.4088L415.653 50.5977L409.811 54.0688Z" fill="black" stroke="black" stroke-miterlimit="10"/>
<path d="M341.586 68.7969H349.163V72.6958H355.018L372.447 55.2546H379.267L390.805 43.7168L416.74 39.549H420.639V29.3679L428.865 21.1423V10.7411H440.562L451.073 7.50224V5.76668H431.468L424.966 1H400.925L369.966 4.6789L355.018 5.1189L337.907 11.8289H327.506L320.637 18.7101L323.827 21.5823H343.969V34.7823H349.383V37.8257H341.586V41.5046H347.22L345.375 43.3379H341.146L337.039 49.3024L341.586 68.7969Z" fill="black" stroke="black" stroke-miterlimit="10"/>
<path d="M188.135 211.198L189.919 212.334L195.603 209.902H199.66L198.646 210.917H202.264L206.493 214.449V216.722H211.198V218.666H209.414V220.291H217.053L221.269 218.996V217.37H216.882V215.097H213.63L208.192 209.658H204.696V208.436L201.127 207.299H195.603L188.135 211.198Z" fill="black" stroke="black" stroke-miterlimit="10"/>
<path d="M193.94 212.371L195.212 211.197L196.605 212.151L195.273 213.287L193.94 212.371Z" fill="black" stroke="black" stroke-miterlimit="10"/>
<path d="M207.055 224.52L206.249 225.901L208.436 227.526H213.069L213.399 226.023L210.221 224.52H207.055Z" fill="black" stroke="black" stroke-miterlimit="10"/>
<path d="M243.282 225.01V227.198H247.181L248.158 226.098V225.01H243.282Z" fill="black" stroke="black" stroke-miterlimit="10"/>
<path d="M293.882 485.404H297.219L298.099 486.296L295.996 489.059L293.882 487.91V485.404Z" fill="black" stroke="black" stroke-miterlimit="10"/>
<path d="M298.832 486.541L296.975 489.865H299.162L301.35 488.203H302.572V486.541H298.832Z" fill="black" stroke="black" stroke-miterlimit="10"/>
<path d="M323.607 11.7184L349.922 6.03501L350.899 3.76167L331.894 2.625L291.279 4.89834V7.17168L295.349 9.44502L294.2 11.7184L287.062 7.17168L275.366 9.93391V14.4806L284.789 16.265V18.0617H276.661V20.8117L297.622 21.6306L304.76 19.5162V15.9473L317.924 11.2295L323.607 11.7184Z" fill="black" stroke="black" stroke-miterlimit="10"/>
<path d="M252.779 12.1211L255.92 16.9244H272.604V14.5289L269.243 13.2333L264.048 13.7833H259.062L252.779 12.1211Z" fill="black" stroke="black" stroke-miterlimit="10"/>
<path d="M263.828 19.2976V20.7154H268.925V22.6587L266.859 23.6365V25.6898H293.284L295.447 23.0987L287.222 22.4998L283.543 22.9887H275.366V18.332L263.828 19.2976Z" fill="black" stroke="black" stroke-miterlimit="10"/>
<path d="M202.533 21.6294L222.896 16.9238L226.794 22.5461L231.341 22.0083V19.7349H238.601V23.7439L218.569 27.0928L202.533 21.6294Z" fill="black" stroke="black" stroke-miterlimit="10"/>
<path d="M244.773 19.5176V22.7687H248.892V24.1743H256.25L259.819 25.6898L264.476 23.3065H259.281V19.5176H244.773Z" fill="black" stroke="black" stroke-miterlimit="10"/>
<path d="M272.604 27.5352L260.039 34.783V37.8263H266.321V39.3419H283.212L286.036 38.4741L293.394 45.8319L278.018 54.3875H273.031V57.4186H283.322L288.309 62.4053H298.27L304.064 56.6119L300.544 53.0919L304.333 49.303L310.175 55.1453L317.594 47.7263L307.474 42.8008L311.483 39.8796L296.645 28.0729L272.604 27.5352Z" fill="black" stroke="black" stroke-miterlimit="10"/>
<path d="M235.399 30.5642C235.399 30.5642 237.403 35.2698 238.589 35.2698C239.775 35.2698 249.357 31.7009 249.357 31.7009L251.63 25.6875L235.387 30.5642H235.399Z" fill="black" stroke="black" stroke-miterlimit="10"/>
<path d="M180.497 32.509L183.748 35.2713H190.079L197.559 32.509V33.8902L195.237 36.2124H193.172V37.0679H202.534L205.162 39.6835H193.66V41.1257H198.207V41.9324L196.826 43.3135V44.1324H202.534L215.832 40.8813V42.018L220.574 43.6435L225.011 43.1546L226.551 40.3068L229.875 40.8813L231.342 39.2557L225.903 36.0902L228.176 34.5502L229.227 30.8101L234.104 29.429V27.8035L224.681 29.099L221.674 33.9757L220.134 33.5724L221.112 31.2135L218.349 29.8324L211.444 29.9912L207.704 26.2635H201.287L200.676 25.6523H190.898V27.9624L180.497 32.509Z" fill="black" stroke="black" stroke-miterlimit="10"/>
<path d="M250.995 57.2843V58.3476L246.607 59.6432V60.4498H250.591V61.5132H252.779L257.9 58.5065L261.555 60.9387L264.72 59.3987L262.447 57.2843L262.691 56.4776L258.23 52.8965H255.945L250.995 57.2843Z" fill="black" stroke="black" stroke-miterlimit="10"/>
<path d="M252.058 64.0305V65.2405H254.735L258.719 63.0527V61.916L254.82 62.4049L252.058 64.0305Z" fill="black" stroke="black" stroke-miterlimit="10"/>
<path d="M260.039 65.8138L261.885 64.0293H263.987V64.9215L262.019 66.8649L260.039 65.8138Z" fill="black" stroke="black" stroke-miterlimit="10"/>
<path d="M280.401 108.127L282.149 109.875V110.645L285.596 112.026L287.955 111.623V110.083L283.726 108.127H280.401Z" fill="black" stroke="black" stroke-miterlimit="10"/>
<path d="M292.746 115.361L304.479 103.615L308.831 102.283V103.42L303.587 108.651H305.983V110.081H311.348V111.377H309.723V113.002H312.399V116.412L309.197 119.614H306.961L308.843 117.732L307.572 116.449L304.198 119.822H301.436V118.197H303.379L304.724 116.864H302.084V116.168H292.746V115.361Z" fill="black" stroke="black" stroke-miterlimit="10"/>
<path d="M276.576 119.617L279.998 122.061L282.553 120.839V120.154H279.571L278.128 119.299V118.443H276.784L276.576 119.617Z" fill="black" stroke="black" stroke-miterlimit="10"/>
<path d="M307.804 94.243L307.156 92.0797L300.446 88.2908V86.3352L299.468 85.3574L301.314 83.0841L299.15 70.9596H297.525L291.243 77.2418H289.837L285.718 78.5374L283.017 75.0663L286.696 69.9696L285.229 68.5029H281.709V65.6307L278.03 63.3573L275.537 64.5429H272.616L269.145 62.9173L265.894 64.7629V67.1462L263.29 69.1996V72.6585L258.255 77.694L260.418 79.8574V83.2674L256.715 86.9707L246.509 91.053V93.3263L244.456 99.6086L241.095 102.42H237.843V101.014L236.487 99.6575V97.0052L239.249 97.983L239.897 96.1374L237.403 94.5119V91.7985L240.215 89.953V88.6574H232.637L231.28 87.3008L225.805 83.6707L221.588 81.7274H217.041L218.777 76.7407H215.416V74.8951L219.632 70.6662L231.659 62.3307H236.853V60.2773H239.665L241.07 58.004H245.837L251.141 55.2906L251.63 53.9951L256.018 51.5017V49.9862H260.027V51.2817L261.872 53.4451L262.96 51.2817L269.78 48.7884L271.736 46.4051V43.8017H275.097V40.7706H266.651V42.8239L256.36 47.1506L255.175 45.965L258.157 42.9828L256.311 41.1373L253.219 44.2173L251.655 41.6139V39.5606C251.655 39.5606 253.769 40.3184 253.769 39.5606V33.8161L257.338 31.115H261.017L267.409 27.8639V26.9961H257.179L251.655 33.0583L240.936 38.4117L245.482 40.8439V44.095H238.601V39.5484H235.411L230.082 44.8773H219.009L214.621 42.7873L202.546 47.4928H189.932V44.8406H193.183V42.1273L179.372 39.035L168.653 37.2261L143.145 42.1273L134.492 40.2328L97.043 72.744L100.807 76.5085V78.8429L98.143 81.7641V90.0508H102.042L103.337 87.7774H105.122V92.0063L102.519 94.9274L104.144 98.9852L102.519 103.214H98.9496V107.113L104.474 112.638L104.23 113.126L109.669 115.082V111.672H190.238L201.849 115.766L205.186 114.434L205.674 115.326L211.04 112.002H215.587V115.009H217.775V119.152L218.752 123.051H227.039L228.176 124.188V126.375L226.025 128.526L224.692 127.194L223.14 128.734H221.93L217.799 132.865H217.359L216.54 135.713L220.952 134.173L226.477 132.462L228.188 129.541L236.548 128.734V129.614L242.561 125.862H253.28L262.19 116.952H266.602V119.152L264.928 122.611L265.881 124.86L272.934 123.699V125.214L266.761 128.783L268.277 131.924L276.075 127.488L284.74 124.994V123.906H287.124L289.067 121.633L287.661 120.765L288.639 119.14L287.344 118.272L283.555 121.633L283.445 123.039H279.326L275.427 120.765V117.514L280.731 112.858V110.694H275.855L262.422 116.219V114.483L272.384 110.364V108.091L274.547 105.927H293.711L300.861 103.116L304.54 102.786L308.549 100.293L310.933 95.2085L307.791 94.1208L307.804 94.243ZM163.984 55.0829L171.978 52.3328L166.417 49.864L180.154 49.4484L175.669 52.1862L180.704 54.6673L173.762 55.474L171.55 55.364L166.27 56.2195L160.684 58.4807L163.923 55.8162L163.984 55.0829ZM186.351 64.0173L170.755 69.3829H162.469V67.7573L170.425 65.2396L170.584 62.404L175.131 65.2396L186.339 61.9151V64.0296L186.351 64.0173ZM192.682 103.006L190.079 107.223L189.346 106.086L190.886 103.483V100.88L189.969 99.6819L189.333 92.0674L193.183 90.6497L192.658 102.982L192.682 103.006Z" fill="black" stroke="black" stroke-miterlimit="10"/>
<path d="M96.847 72.6818L97.0303 72.8652L134.479 40.3662L106.099 34.1328L76.2158 43.0673H69.2247L66.3036 44.3751L70.3614 49.8995V52.1729H63.5413V49.5695H57.528L50.0602 52.1729V57.5262L62.7224 55.7418V59.3107L37.3857 66.4607V68.9052L33.6457 70.0296V72.7918H39.8301V74.5885L36.1635 78.243H38.6812H45.3424L41.1257 80.7608L1 93.5941V95.0486L23.9045 89.5241V90.8319H27.4734V87.8986L46.479 81.4085L58.6647 76.373V74.2585L69.8725 69.7118V71.1785L64.1891 74.0996V75.5541L73.2825 72.6329H78.0003L80.5181 70.1152H85.1381L87.7048 72.6818H96.847Z" fill="black" stroke="black" stroke-miterlimit="10"/>
<path d="M266.59 117.061H262.178L253.267 125.971H242.549L236.535 129.724V131.765H228.175V134.197L216.882 139.721H212.824V137.13L216.527 135.822L217.358 132.987H217.077V129.589L214.743 131.924V131.08L217.798 128.025V125.006L215.831 123.038H214.327L211.198 126.155L210.49 125.446L205.552 130.384V133.109L201.531 137.13H199.098V132.095L208.522 122.671H217.615V120.801H215.831H209.658L208.192 119.335V117.22L200.638 120.471H199.184V119.176L195.199 119.823V118.528L201.861 115.876L190.237 111.781H109.668V115.191L104.229 113.248L100.575 120.398L85.3091 142.166V165.388L92.3736 172.453V172.697H101.711L112.113 177.574H121.206V175.141H127.219L131.143 179.065V183.367L133.868 186.093L136.801 183.147H141.238L143.573 185.482V195.712L150.442 197.985L150.552 197.667V192.033L155.208 187.376L167.015 182.499L173.297 185.53L176.756 183.795L178.492 185.103L179.579 184.125L177.844 181.961L181.205 180.654H190.078L191.973 182.56H194.307L195.248 181.607H197.338L200.162 184.443V187.266L197.668 189.759V194.196L201.555 200.478H203.511L205.894 193.548V186.728L203.731 181.094L209.243 173.186H210.551L216.393 167.344H219.534L222.137 164.74H225.706V161.599L227.772 159.546V151.956L229.287 150.44L230.473 151.858L229.495 153.691L230.473 154.131L234.372 150.122L234.054 147.629H235.68L240.324 142.972V140.699L251.165 138.756V135.615H252.351V133.121L256.787 129.87L265.025 126.839V125.104L265.869 124.969L264.915 122.72L266.59 119.261V117.061Z" fill="black" stroke="black" stroke-miterlimit="10"/>
<path d="M227.6 220.292L225.486 219.314L222.968 220.292L222.883 221.026L225.645 221.27L225.486 224.521H219.069V226.024L221.159 228.114L222.797 226.024H227.185L227.454 226.293L229.238 219.913L227.588 220.304L227.6 220.292Z" fill="black" stroke="black" stroke-miterlimit="10"/>
<path d="M238.161 222.895H235.814L231.744 219.326L229.251 219.913L227.466 226.293L229.092 227.918H230.29V225.327H232.074V226.317H234.506V225.254L238.161 226.317L239.627 224.521L238.161 222.895Z" fill="black" stroke="black" stroke-miterlimit="10"/>
<path d="M169.313 239.738L173.762 235.265H171.782V234.348L170.951 234.861H169.777L170.877 227.516H163.605V229.789L166.123 232.307V234.262H160.916C160.916 234.262 159.718 237.33 158.948 239.335L165.389 243.356H165.707L169.313 239.726V239.738Z" fill="black" stroke="black" stroke-miterlimit="10"/>
<path d="M166.123 234.261V232.306L163.605 229.788V227.515H171.317L174.886 223.946L176.695 225.755L178.272 221.709V218.886L181.193 215.965L181.303 213.581H175.558L168.518 214.987V219.643L164.729 223.542H160.073V224.948L154.438 226.036L153.46 225.058H150.099L146.42 213.471V209.035L150.417 197.986L143.56 195.712V185.482L141.226 183.148H136.789L133.856 186.081L131.13 183.356V179.053L127.207 175.13H121.194V177.562H112.1L101.699 172.686H92.3613V182.757L97.3602 187.756V190.554H93.2535V192.18L100.074 199L97.8002 201.273L104.791 208.252V209.878H108.201V204.512L104.877 201.188V196.397L101.064 186.326L98.4602 181.779V175.766L105.61 179.176V185.018L112.271 194.6L110.646 196.715L121.206 209.878V217.346H118.603V219.619L124.689 225.706H130.128L146.054 235.862L152.226 232.611L158.887 239.272L158.948 239.309C159.718 237.305 160.916 234.237 160.916 234.237H166.123V234.261Z" fill="black" stroke="black" stroke-miterlimit="10"/>
<path d="M171.317 227.526H170.877L169.777 234.872H170.951L171.782 234.359V233.295L175.033 230.044L176.695 225.754L174.898 223.945L171.317 227.526Z" fill="black" stroke="black" stroke-miterlimit="10"/>
<path d="M186.069 253.867V248.672L187.915 247.804V242.28L189.272 240.923V239.139H183.344L177.172 242.72V246.008H174.324V247.584L179.75 253.011L186.192 253.989L186.069 253.867Z" fill="black" stroke="black" stroke-miterlimit="10"/>
<path d="M169.313 239.738L165.708 243.368H173.835V242.073L169.313 239.75V239.738Z" fill="black" stroke="black" stroke-miterlimit="10"/>
<path d="M177.171 242.719L183.344 239.138H189.271V236.755L187.78 235.264H173.761L169.312 239.737L173.835 242.059V243.355H174.324V245.995H177.171V242.707V242.719Z" fill="black" stroke="black" stroke-miterlimit="10"/>
<path d="M186.192 253.988L179.75 253.01L179.934 253.193V257.495L184.921 262.494V263.826L187.829 266.735V264.376H188.795L189.418 257.165L186.192 253.988Z" fill="black" stroke="black" stroke-miterlimit="10"/>
<path d="M207.568 262.265L203.889 258.574L199.832 258.317L193.977 261.666L189.418 257.168L188.795 264.379H191.484V266.738H197.876V263.511L200.528 260.859L203.462 263.78L202.325 264.917L204.782 267.386L207.568 264.648V262.265Z" fill="black" stroke="black" stroke-miterlimit="10"/>
<path d="M198.853 311.042L200.699 313.425L203.4 305.847L211.846 302.278V294.908L199.966 287.086L199.183 287.868V289.494L196.36 290.802V294.04L192.999 297.402V303.146L196.201 306.336V307.253L195.333 308.12L195.712 310.944L198.853 311.042Z" fill="black" stroke="black" stroke-miterlimit="10"/>
<path d="M219.889 303.547L226.305 302.484L229.556 304.354L227.772 308.497L230.669 309.12L232.319 298.108L229.398 295.175V292.168H232.881V290.31H230.608V287.866H239.628L237.672 283.808V270.73H232.319L229.752 268.176H223.543L221.844 260.256H220.048L222.406 253.436L225.059 251.945L224.949 251.59L228.53 249.097L227.014 246.934L220.402 252.128H215.745L212.445 255.44V258.41L208.082 262.774L207.569 262.26V264.644L204.782 267.381L206.652 269.239V273.028L205.784 273.896V281.266L199.966 287.084L211.846 294.906V295.859L218.996 299.318L219.889 303.547Z" fill="black" stroke="black" stroke-miterlimit="10"/>
<path d="M234.531 352.304L235.888 347.329L236.108 340.937L233.077 335.303H229.288V330.866H223.116L216.014 323.765L220.084 318.949V313.425L227.552 310.394H230.473L230.669 309.122L227.772 308.499L229.557 304.356L226.306 302.486L219.889 303.549L218.997 299.32L211.847 295.861V302.278L203.401 305.847L200.7 313.425L198.854 311.041L195.713 310.944L195.334 308.12L192.707 310.748V313.107L195.188 315.576V316.566H193.44V317.874L198.427 320.685L200.908 325.561L211.737 344.616V347.537L228.42 358.476V360.639L232.734 363.279L235.778 360.322L234.91 358.806L237.306 355.335L234.531 352.304Z" fill="black" stroke="black" stroke-miterlimit="10"/>
<path d="M262.043 266.382V267.726H259.611V272.493L261.994 274.876V275.329L263.51 275.121L264.72 279.753L262.605 281.868V285.681H263.938V287.71L267.079 289.983L271.906 287.38V281.819L270 279.912V275.61H272.848V271.638L264.805 262.752H263.938V264.475L262.043 266.382Z" fill="black" stroke="black" stroke-miterlimit="10"/>
<path d="M270 275.609V279.911L271.907 281.818V287.379L276.013 287.599V285.656L279.484 284.727L280.89 285.973L283.078 282.343V280.241L281.648 279.105V274.827L283.273 274.387L284.104 272.749L281.477 271.844H273.031L272.848 271.637V275.609H270Z" fill="black" stroke="black" stroke-miterlimit="10"/>
<path d="M246.337 293.124L251.911 287.55V285.387H249.43V281.586L247.584 279.422H254.306L261.994 277.259V275.328V274.876L259.611 272.492V267.726H262.043V266.381L263.938 264.475V262.751H260.906V258.742L255.871 253.707H250.945L248.855 255.785H245.311L244.027 254.501H237.195V252.02H233.076L232.099 248.781H230.693V251.372L227.124 254.196L228.957 256.579L228.42 260.258L226.794 260.796L224.411 257.545L225.816 254.623L225.058 251.947L222.406 253.438L220.047 260.258H221.844L223.543 268.178H229.752L232.319 270.732H237.672V283.81L239.627 287.868H239.359V293.124H246.337Z" fill="black" stroke="black" stroke-miterlimit="10"/>
<path d="M283.701 285.704L287.111 285.973L291.425 278.101L287.111 273.787L284.104 272.748L283.273 274.386L281.647 274.826V279.104L283.077 280.24V282.343L281.244 285.374L282.833 286.461L283.701 285.704Z" fill="black" stroke="black" stroke-miterlimit="10"/>
<path d="M344.946 313.426H340.07L330.805 304.173H322.959L318.412 303.147L314.293 306.178V302.059L304.98 296.975L302.058 299.896H300.103L302.388 295.459V294.151H295.886L293.613 296.975L292.317 295.997L296.534 290.472V287.111H294.371L292.415 279.106L291.78 278.458L291.425 278.103L287.111 285.974L283.701 285.706L282.833 286.463L281.244 285.376L280.889 285.974L279.484 284.728L276.013 285.657V287.6L271.906 287.38L267.078 289.983L263.937 287.71V285.681H262.605V281.868L264.719 279.753L263.509 275.121L261.994 275.329V277.26L254.306 279.423H247.584L249.429 281.587V285.388H251.91V287.551L246.337 293.124H239.358V287.869H230.607V290.313H232.88V292.171H229.397V295.178L232.318 298.111L230.473 310.395H227.551L220.084 313.426V318.95L216.014 323.766L223.115 330.867H229.287V335.304H233.076L233.284 335.707L236.755 336.012L237.623 334.387H238.869L242.438 330.806H246.667V337.577L251.018 341.94H253.817L257.802 345.937H261.664L263.253 347.526V355.556H271.515V359.406H273.361L274.815 362.645L272.921 368.609L274.815 373.095V377.055H281.647L283.652 384.584H287.441V390.426H290.362V395.84L279.753 406.449L295.776 416.85L296.778 421.959L298.355 420.395V414.797L303.073 410.067V405.484L307.815 400.742V397.894L306.348 396.427V389.558H307.815L317.287 380.098H326.967V378.191H329.571L333.25 367.79V362.596H334.325V342.881H336.171L340.29 334.974H342.563L347.269 330.268V320.038L344.946 313.426Z" fill="black" stroke="black" stroke-miterlimit="10"/>
<path d="M239.469 367.143L239.872 372.753L242.793 380.38H245.066H245.959L248.635 376.567L259.77 377.545V368.036L269.841 366.41L273.092 368.085L274.815 362.646L273.361 359.407H271.515V355.557H263.253V347.527L261.664 345.938H257.802L253.818 341.941H251.019L246.668 337.578V330.807H242.439L238.87 334.388H237.623L236.755 336.013L233.284 335.708L236.108 340.939L235.888 347.331L234.531 352.306L237.305 355.337L234.91 358.808L235.778 360.323L235.093 360.996L237.305 366.007L239.469 367.143Z" fill="black" stroke="black" stroke-miterlimit="10"/>
<path d="M286.842 426.003H292.746L296.779 421.957L295.777 416.849L280.829 407.156L279.338 408.892L281.477 421.407L281.856 421.016L286.842 426.003Z" fill="black" stroke="black" stroke-miterlimit="10"/>
<path d="M277.59 388.909L274.815 396.597L283.652 397.465L287.221 394.116L287.746 390.425H287.441V384.583H283.652L281.647 377.054H274.815V373.094L272.921 368.608L273.092 368.083L269.841 366.408L259.77 368.034V377.494L264.695 382.957L277.59 388.909Z" fill="black" stroke="black" stroke-miterlimit="10"/>
<path d="M272.762 490.929H270.158L269.755 489.059L261.542 488.203L259.757 483.29L253.744 479.55L255.528 475.492L254.062 460.226H251.458L245.127 448.371V421.971L240.581 413.28V405.483L243.013 396.389V388.103L245.934 385.181V380.39H242.768L239.847 372.764L239.444 367.154L237.281 366.017L235.081 361.006L232.722 363.304L232.844 363.377L234.787 373.778V402.586L236.462 404.273V406.925L235.129 408.245V410.274L238.246 416.984C238.246 416.984 238.674 431.712 238.246 432.139C237.818 432.579 236.511 432.139 236.511 432.139V433.985L239.762 441.135V448.285L241.277 449.801V456.841H243.771V450.448L244.956 451.316L247.767 464.638H246.362L245.066 460.96L243.123 460.74L244.308 465.286L242.793 468.427L244.308 470.383H248.097V473.304H245.604L250.591 484.133H252.754V486.516L258.058 492.249L262.715 495.61L276.184 499.949L276.881 498.176L272.737 490.953L272.762 490.929Z" fill="black" stroke="black" stroke-miterlimit="10"/>
<path d="M290.362 390.425H287.747L287.221 394.116L283.652 397.465L274.816 396.597L277.59 388.909L264.696 382.957L259.77 377.493V377.542L248.636 376.564L245.959 380.378V385.169L243.038 388.102V396.377L240.605 405.482V413.28L245.152 421.958V448.358L251.483 460.214H254.087L255.541 475.491L253.757 479.549L259.77 483.289L261.554 488.203L269.756 489.058L270.171 490.928H272.762L276.906 498.152L276.209 499.924L279.533 500.999L286.463 499.044V497.528H283.75L272.921 490.158H270.758V488.863L271.626 487.995L268.374 482.58V481.175H270.758V477.276L274.278 473.756V470.456H270L266.431 466.887V463.526H270.11V455.838H272.273V452.049H268.484L265.184 448.737V446.415L271.956 448.908L274.767 446.085V442.076L272.982 440.291V438.177L275.439 440.646L287.001 436.991V434.608L288.358 433.251V430.061H285.376V426.81L280.731 422.154L281.477 421.408L279.338 408.892L280.829 407.157L279.753 406.448L290.362 395.839V390.425Z" fill="black" stroke="black" stroke-miterlimit="10"/>
<path d="M158.166 289.86L159.449 288.002L161.087 289.408L159.62 290.776L158.166 289.86Z" fill="black" stroke="black" stroke-miterlimit="10"/>
<path d="M161.087 290.334L162.872 295.296L161.222 296.677L158.582 296.836L157.995 294.38L160.427 292.705L160.183 290.97L161.087 290.334Z" fill="black" stroke="black" stroke-miterlimit="10"/>
<path d="M162.064 290.202L162.468 291.51L164.069 290.776L163.617 289.188L162.064 290.202Z" fill="black" stroke="black" stroke-miterlimit="10"/>
<path d="M163.911 292.256L163.532 293.38L164.387 293.588L164.815 292.39L163.911 292.256Z" fill="black" stroke="black" stroke-miterlimit="10"/>
<defs>
<filter id="filter0_d_361_391" x="643.187" y="139.305" width="171.127" height="184.812" filterUnits="userSpaceOnUse" color-interpolation-filters="sRGB">
<feFlood flood-opacity="0" result="BackgroundImageFix"/>
<feColorMatrix in="SourceAlpha" type="matrix" values="0 0 0 0 0 0 0 0 0 0 0 0 0 0 0 0 0 0 127 0" result="hardAlpha"/>
<feOffset dy="20"/>
<feGaussianBlur stdDeviation="20"/>
<feComposite in2="hardAlpha" operator="out"/>
<feColorMatrix type="matrix" values="0 0 0 0 0 0 0 0 0 0 0 0 0 0 0 0 0 0 0.15 0"/>
<feBlend mode="normal" in2="BackgroundImageFix" result="effect1_dropShadow_361_391"/>
<feBlend mode="normal" in="SourceGraphic" in2="effect1_dropShadow_361_391" result="shape"/>
</filter>
</defs>
</svg>
