<svg width="26" height="26" viewBox="0 0 26 26" fill="none" xmlns="http://www.w3.org/2000/svg">
<path d="M21.5334 3.80001H20.2667V1.26667C20.2667 0.930727 20.1332 0.608545 19.8957 0.370999C19.6582 0.133452 19.336 0 19 0C18.6641 0 18.3419 0.133452 18.1044 0.370999C17.8668 0.608545 17.7334 0.930727 17.7334 1.26667V3.80001H7.60001V1.26667C7.60001 0.930727 7.46656 0.608545 7.22901 0.370999C6.99147 0.133452 6.66928 0 6.33334 0C5.9974 0 5.67522 0.133452 5.43767 0.370999C5.20013 0.608545 5.06667 0.930727 5.06667 1.26667V3.80001H3.80001C2.79218 3.80001 1.82564 4.20036 1.113 4.913C0.400357 5.62564 0 6.59219 0 7.60001V8.86668H25.3334V7.60001C25.3334 6.59219 24.933 5.62564 24.2204 4.913C23.5077 4.20036 22.5412 3.80001 21.5334 3.80001Z" fill="white"/>
<path d="M0 21.5337C0 22.5416 0.400357 23.5081 1.113 24.2208C1.82564 24.9334 2.79218 25.3337 3.80001 25.3337H21.5334C22.5412 25.3337 23.5077 24.9334 24.2204 24.2208C24.933 23.5081 25.3334 22.5416 25.3334 21.5337V11.4004H0V21.5337Z" fill="white"/>
</svg>
