<svg width="30" height="26" viewBox="0 0 30 26" fill="none" xmlns="http://www.w3.org/2000/svg">
<path d="M25.3787 13.584H23.085C23.3188 14.2241 23.4465 14.9149 23.4465 15.6349V24.3041C23.4465 24.6043 23.3942 24.8924 23.2992 25.1604H27.0913C28.5079 25.1604 29.6603 24.008 29.6603 22.5915V17.8655C29.6603 15.5047 27.7396 13.584 25.3787 13.584Z" fill="white"/>
<path d="M6.21383 15.6349C6.21383 14.9149 6.34157 14.2241 6.57537 13.584H4.28159C1.92072 13.584 0 15.5047 0 17.8656V22.5915C0 24.008 1.1524 25.1605 2.56895 25.1605H6.36115C6.26608 24.8924 6.21383 24.6043 6.21383 24.3041V15.6349Z" fill="white"/>
<path d="M17.4523 11.3535H12.2083C9.84748 11.3535 7.92676 13.2742 7.92676 15.6351V24.3043C7.92676 24.7772 8.31014 25.1606 8.78307 25.1606H20.8775C21.3505 25.1606 21.7338 24.7772 21.7338 24.3043V15.6351C21.7338 13.2742 19.8131 11.3535 17.4523 11.3535Z" fill="white"/>
<path d="M14.8298 0C11.9906 0 9.68066 2.30989 9.68066 5.1492C9.68066 7.07507 10.7436 8.75706 12.3134 9.64014C13.058 10.059 13.9164 10.2983 14.8298 10.2983C15.7432 10.2983 16.6016 10.059 17.3462 9.64014C18.916 8.75706 19.9789 7.07501 19.9789 5.1492C19.9789 2.30995 17.6691 0 14.8298 0Z" fill="white"/>
<path d="M5.78838 4.79883C3.66496 4.79883 1.9375 6.52629 1.9375 8.64971C1.9375 10.7731 3.66496 12.5006 5.78838 12.5006C6.32701 12.5006 6.83992 12.389 7.30585 12.1885C8.11142 11.8416 8.77564 11.2277 9.18665 10.4587C9.47514 9.91895 9.63926 9.30321 9.63926 8.64971C9.63926 6.52635 7.91179 4.79883 5.78838 4.79883Z" fill="white"/>
<path d="M23.8724 4.79883C21.7489 4.79883 20.0215 6.52629 20.0215 8.64971C20.0215 9.30327 20.1856 9.919 20.4741 10.4587C20.8851 11.2278 21.5493 11.8417 22.3549 12.1885C22.8208 12.389 23.3337 12.5006 23.8724 12.5006C25.9958 12.5006 27.7232 10.7731 27.7232 8.64971C27.7232 6.52629 25.9958 4.79883 23.8724 4.79883Z" fill="white"/>
</svg>
