<svg width="27" height="26" viewBox="0 0 27 26" fill="none" xmlns="http://www.w3.org/2000/svg">
<path d="M26.4156 9.59112C26.2423 9.05484 25.7666 8.67394 25.2038 8.62322L17.5596 7.92912L14.5369 0.854138C14.314 0.335634 13.8064 0 13.2425 0C12.6785 0 12.1709 0.335634 11.948 0.855351L8.92531 7.92912L1.27989 8.62322C0.718144 8.67515 0.24369 9.05484 0.0693057 9.59112C-0.105078 10.1274 0.0559693 10.7156 0.480917 11.0864L6.25903 16.1539L4.5552 23.6592C4.43052 24.2111 4.64471 24.7815 5.1026 25.1125C5.34872 25.2903 5.63666 25.3809 5.92703 25.3809C6.17739 25.3809 6.42573 25.3134 6.64862 25.18L13.2425 21.2391L19.8339 25.18C20.3162 25.4702 20.9243 25.4437 21.3811 25.1125C21.8392 24.7805 22.0532 24.2099 21.9285 23.6592L20.2247 16.1539L26.0028 11.0874C26.4278 10.7156 26.59 10.1284 26.4156 9.59112Z" fill="white"/>
</svg>
