<svg width="22" height="25" viewBox="0 0 22 25" fill="none" xmlns="http://www.w3.org/2000/svg">
<path d="M10.9234 0C7.3094 0 4.36914 2.94026 4.36914 6.5543C4.36914 10.1683 7.3094 13.1086 10.9234 13.1086C14.5375 13.1086 17.4777 10.1683 17.4777 6.5543C17.4777 2.94026 14.5375 0 10.9234 0Z" fill="white"/>
<path d="M19.0786 17.3898C17.2842 15.5678 14.9054 14.5645 12.3803 14.5645H9.46732C6.94231 14.5645 4.56344 15.5678 2.76902 17.3898C0.983387 19.2029 0 21.5961 0 24.1289C0 24.5311 0.326064 24.8571 0.728255 24.8571H21.1194C21.5216 24.8571 21.8477 24.5311 21.8477 24.1289C21.8477 21.5961 20.8643 19.2029 19.0786 17.3898Z" fill="white"/>
</svg>
