<svg width="62" height="53" viewBox="0 0 62 53" fill="none" xmlns="http://www.w3.org/2000/svg">
<path d="M49.826 0.325514C49.1588 -0.165585 48.2199 -0.0228564 47.7288 0.644311L39.7258 11.5164C39.2347 12.1836 39.3775 13.1226 40.0446 13.6137C40.7118 14.1048 41.6508 13.962 42.1419 13.2949L49.2556 3.63075L58.9197 10.7445C59.5869 11.2356 60.5258 11.0928 61.0169 10.4257C61.508 9.7585 61.3653 8.81954 60.6981 8.32844L49.826 0.325514ZM0.796854 51.913C14.2236 53.7525 28.2471 51.8393 38.1542 43.964C48.1591 36.011 53.6069 22.2748 50.4197 1.3081L47.4538 1.75895C50.5306 21.9997 45.2146 34.5193 36.2874 41.6156C27.2625 48.7896 14.1859 50.7193 1.20405 48.9408L0.796854 51.913Z" fill="black"/>
</svg>
