<svg width="62" height="54" viewBox="0 0 62 54" fill="none" xmlns="http://www.w3.org/2000/svg">
<path d="M49.8255 52.9538C49.1583 53.4449 48.2194 53.3022 47.7283 52.635L39.7254 41.7629C39.2343 41.0957 39.377 40.1567 40.0442 39.6656C40.7113 39.1745 41.6503 39.3173 42.1414 39.9844L49.2551 49.6485L58.9192 42.5348C59.5864 42.0437 60.5253 42.1865 61.0164 42.8536C61.5075 43.5208 61.3648 44.4598 60.6976 44.9509L49.8255 52.9538ZM0.796366 1.3663C14.2231 -0.473174 28.2466 1.44005 38.1537 9.31532C48.1586 17.2683 53.6064 31.0045 50.4193 51.9712L47.4533 51.5203C50.5301 31.2796 45.2141 18.76 36.2869 11.6637C27.262 4.48972 14.1854 2.56001 1.20356 4.33853L0.796366 1.3663Z" fill="white"/>
</svg>
