<svg width="62" height="54" viewBox="0 0 62 54" fill="none" xmlns="http://www.w3.org/2000/svg">
<path d="M49.826 52.9284C49.1588 53.4195 48.2199 53.2768 47.7288 52.6096L39.7258 41.7375C39.2347 41.0703 39.3775 40.1313 40.0446 39.6402C40.7118 39.1491 41.6508 39.2919 42.1419 39.959L49.2556 49.6232L58.9197 42.5094C59.5869 42.0183 60.5258 42.1611 61.0169 42.8282C61.508 43.4954 61.3653 44.4344 60.6981 44.9255L49.826 52.9284ZM0.796854 1.34091C14.2236 -0.498565 28.2471 1.41465 38.1542 9.28993C48.1591 17.2429 53.6069 30.9791 50.4197 51.9458L47.4538 51.495C50.5306 31.2542 45.2146 18.7347 36.2874 11.6384C27.2625 4.46433 14.1859 2.53462 1.20405 4.31314L0.796854 1.34091Z" fill="black"/>
</svg>
