<svg width="16" height="12" viewBox="0 0 16 12" fill="none" xmlns="http://www.w3.org/2000/svg">
<path d="M5 11C4.44772 10.4477 4.44772 9.55228 5 9L13 0.999965C13.5523 0.447678 14.4478 0.447678 15 0.999965C15.5523 1.55225 15.5523 2.44769 15 2.99997L7.00001 11C6.44773 11.5523 5.55229 11.5523 5 11Z" fill="#3578E2"/>
<path d="M7 11C6.44772 11.5523 5.55228 11.5523 5 11L0.99998 6.99998C0.447694 6.44769 0.447693 5.55226 0.99998 4.99997C1.55227 4.44769 2.4477 4.44769 2.99999 4.99997L7 8.99999C7.55229 9.55227 7.55229 10.4477 7 11Z" fill="black"/>
</svg>
