<svg width="30" height="30" viewBox="0 0 30 30" fill="none" xmlns="http://www.w3.org/2000/svg">
<path d="M15 30C23.2822 30 30 23.2822 30 15C30 6.71784 23.2822 0 15 0C6.71784 0 0 6.71784 0 15C0 23.2822 6.71784 30 15 30ZM13.9285 6.42858C13.9285 5.83928 14.4107 5.35712 15 5.35712C15.5893 5.35712 16.0715 5.83928 16.0715 6.42858V14.4857L21.0268 18.45C21.4876 18.8197 21.5625 19.4946 21.1929 19.9554C20.9839 20.2178 20.6732 20.3571 20.3571 20.3571C20.1214 20.3571 19.8857 20.2821 19.6875 20.1214L14.3304 15.8357C14.0786 15.6321 13.9286 15.3268 13.9286 15V6.42858H13.9285Z" fill="#3578E2"/>
</svg>
