<svg width="30" height="30" viewBox="0 0 30 30" fill="none" xmlns="http://www.w3.org/2000/svg">
<path d="M15 0C6.71605 0 0 6.71605 0 15C0 23.284 6.71605 30 15 30C23.284 30 30 23.284 30 15C30 6.71605 23.284 0 15 0ZM20.2346 22.5988C19.784 22.8025 19.3148 22.9753 18.8333 23.1049C17.0062 23.6111 15.179 23.6296 13.358 23.037C11.1605 22.3272 9.7037 20.8272 8.83333 18.7284C8.66667 18.321 8.55556 17.8951 8.42593 17.4691H6.7037C6.41358 17.4691 6.18518 17.2346 6.18518 16.9506V15.7901C6.18518 15.5 6.41975 15.2716 6.7037 15.2716H8.12963C8.12963 14.9506 8.12963 14.6481 8.12963 14.3272H6.7037C6.41358 14.3272 6.18518 14.0926 6.18518 13.8086V12.6481C6.18518 12.358 6.41975 12.1296 6.7037 12.1296H8.51852L8.58025 11.9506C9.0679 10.4012 9.90741 9.07407 11.1975 8.07407C12.2222 7.27778 13.4074 6.83951 14.679 6.6358C16.4877 6.34568 18.2407 6.59259 19.9383 7.25926C20.0494 7.30247 20.1543 7.35185 20.2593 7.41358C20.6667 7.65432 20.7716 7.95679 20.5926 8.39506C20.4012 8.85185 20.2099 9.31481 20 9.76543C19.821 10.1543 19.5741 10.2778 19.1543 10.1852C18.5802 10.0556 18.0185 9.87654 17.4444 9.75926C16.2346 9.51235 15.0309 9.5 13.8519 9.96296C12.8395 10.3642 12.2222 11.1358 11.8025 12.0988C11.7963 12.1111 11.7963 12.1235 11.7963 12.1358H15.321C15.6111 12.1358 15.8395 12.3704 15.8395 12.6543V13.8148C15.8395 14.1049 15.6049 14.3333 15.321 14.3333H11.2963C11.2901 14.642 11.2963 14.9506 11.2963 15.2778H15.3272C15.6173 15.2778 15.8457 15.5123 15.8457 15.7963V16.9568C15.8457 17.2469 15.6111 17.4753 15.3272 17.4753H11.6481C12.0926 18.7469 12.8148 19.7284 14.1728 20.1543C15.2593 20.4938 16.3519 20.4753 17.4506 20.2469C18.0185 20.1296 18.5741 19.9568 19.142 19.8272C19.5864 19.7284 19.8272 19.8457 20.0123 20.2531C20.2222 20.7099 20.4198 21.1728 20.6049 21.642C20.7778 22.0617 20.6667 22.4012 20.2346 22.5988Z" fill="#3578E2"/>
</svg>
