<svg width="110" height="18" viewBox="0 0 110 18" fill="none" xmlns="http://www.w3.org/2000/svg">
<path d="M9.29178 0.740234L11.3949 7.21298H18.2008L12.6947 11.2133L14.7979 17.6861L9.29178 13.6858L3.78574 17.6861L5.88886 11.2133L0.382812 7.21298H7.18866L9.29178 0.740234Z" fill="#3578E2"/>
<path d="M31.7742 0.740234L33.8773 7.21298H40.6832L35.1771 11.2133L37.2803 17.6861L31.7742 13.6858L26.2681 17.6861L28.3713 11.2133L22.8652 7.21298H29.6711L31.7742 0.740234Z" fill="#3578E2"/>
<path d="M55.2 0.888672L57.3031 7.36142H64.109L58.6029 11.3618L60.7061 17.8346L55.2 13.8342L49.6939 17.8346L51.7971 11.3618L46.291 7.36142H53.0969L55.2 0.888672Z" fill="#3578E2"/>
<path d="M77.6746 0.740234L79.7777 7.21298H86.5836L81.0775 11.2133L83.1807 17.6861L77.6746 13.6858L72.1685 17.6861L74.2717 11.2133L68.7656 7.21298H75.5715L77.6746 0.740234Z" fill="#3578E2"/>
<path d="M101.093 0.740234L103.196 7.21298H110.002L104.496 11.2133L106.599 17.6861L101.093 13.6858L95.5864 17.6861L97.6894 11.2133L92.1836 7.21298H98.9896L101.093 0.740234Z" fill="#3578E2"/>
</svg>
