<svg width="41" height="30" viewBox="0 0 41 30" fill="none" xmlns="http://www.w3.org/2000/svg">
<path d="M20.4961 0L0 8.88439L8.71833 12.6017L20.3811 17.558L32.1588 12.3653L36.9491 10.2512V23.4086C36.6942 23.5363 36.4799 23.7324 36.3299 23.9748C36.1799 24.2173 36.1002 24.4967 36.0996 24.7818C36.1019 25.1993 36.2695 25.599 36.5659 25.8931L35.9272 30H39.3443L38.7056 25.9123C38.8854 25.7412 39.0211 25.5293 39.1013 25.2944C39.1815 25.0596 39.2037 24.8088 39.1661 24.5635C39.1285 24.3183 39.0321 24.0857 38.8852 23.8857C38.7382 23.6857 38.5451 23.5242 38.3223 23.4149V9.64445L39.8808 8.96104C39.8984 8.94423 39.9206 8.9331 39.9446 8.9291L40.8772 8.52033L20.4961 0Z" fill="#3578E2"/>
<path d="M20.3875 19.0139C20.2958 19.0131 20.2049 18.9957 20.1193 18.9628L9.13993 14.2875V22.4885C9.13666 23.3222 9.36171 24.141 9.79069 24.8559C10.2197 25.5709 10.8362 26.1548 11.5734 26.5442C14.2936 28.0324 17.3444 28.8124 20.445 28.8124C23.5457 28.8124 26.5965 28.0324 29.3166 26.5442C30.051 26.1525 30.6645 25.5678 31.0911 24.853C31.5177 24.1383 31.7411 23.3208 31.7373 22.4885V14.0703L20.6622 18.95C20.577 18.9928 20.4829 19.0147 20.3875 19.0139Z" fill="#3578E2"/>
</svg>
