<svg width="25" height="25" viewBox="0 0 25 25" fill="none" xmlns="http://www.w3.org/2000/svg">
<path d="M21.25 3.75H20V1.25C20 0.918479 19.8683 0.600537 19.6339 0.366116C19.3995 0.131696 19.0815 0 18.75 0C18.4185 0 18.1005 0.131696 17.8661 0.366116C17.6317 0.600537 17.5 0.918479 17.5 1.25V3.75H7.5V1.25C7.5 0.918479 7.3683 0.600537 7.13388 0.366116C6.89946 0.131696 6.58152 0 6.25 0C5.91848 0 5.60054 0.131696 5.36612 0.366116C5.1317 0.600537 5 0.918479 5 1.25V3.75H3.75C2.75544 3.75 1.80161 4.14509 1.09835 4.84835C0.395088 5.55161 0 6.50544 0 7.5V8.75H25V7.5C25 6.50544 24.6049 5.55161 23.9017 4.84835C23.1984 4.14509 22.2446 3.75 21.25 3.75Z" fill="white"/>
<path d="M0 21.25C0 22.2446 0.395088 23.1984 1.09835 23.9017C1.80161 24.6049 2.75544 25 3.75 25H21.25C22.2446 25 23.1984 24.6049 23.9017 23.9017C24.6049 23.1984 25 22.2446 25 21.25V11.25H0V21.25Z" fill="white"/>
</svg>
