<svg width="26" height="20" viewBox="0 0 26 20" fill="none" xmlns="http://www.w3.org/2000/svg">
<path d="M15.1729 12.6652C14.526 13.0964 13.7747 13.3244 13 13.3244C12.2254 13.3244 11.474 13.0964 10.8272 12.6652L0.173113 5.56224C0.114004 5.52284 0.056418 5.48175 0 5.4395V17.0784C0 18.4128 1.08291 19.4719 2.39347 19.4719H23.6065C24.9409 19.4719 26 18.389 26 17.0784V5.43945C25.9434 5.4818 25.8857 5.52299 25.8265 5.56245L15.1729 12.6652Z" fill="white"/>
<path d="M1.01816 4.29569L11.6722 11.3987C12.0755 11.6676 12.5377 11.802 12.9999 11.802C13.4622 11.802 13.9245 11.6675 14.3278 11.3987L24.9818 4.29569C25.6194 3.8709 26 3.15997 26 2.39266C26 1.07331 24.9266 0 23.6073 0H2.39266C1.07336 5.07813e-05 0 1.07336 0 2.39393C0 3.15996 0.380656 3.8709 1.01816 4.29569Z" fill="white"/>
</svg>
