<svg width="25" height="25" viewBox="0 0 25 25" fill="none" xmlns="http://www.w3.org/2000/svg">
<path d="M24.1958 18C24.1275 17.9458 19.1667 14.37 17.805 14.6267C17.155 14.7417 16.7833 15.185 16.0375 16.0725C15.9175 16.2158 15.6292 16.5592 15.405 16.8033C14.9337 16.6496 14.4739 16.4625 14.0292 16.2433C11.7338 15.1258 9.87916 13.2712 8.76167 10.9758C8.54239 10.5312 8.35524 10.0714 8.20167 9.6C8.44667 9.375 8.79 9.08667 8.93667 8.96333C9.82 8.22167 10.2642 7.85 10.3792 7.19833C10.615 5.84833 7.04167 0.853333 7.00417 0.808333C6.84204 0.576726 6.63046 0.384052 6.38473 0.244253C6.139 0.104453 5.86526 0.0210235 5.58333 0C4.135 0 0 5.36417 0 6.2675C0 6.32 0.0758334 11.6567 6.65667 18.3508C13.3442 24.9242 18.68 25 18.7325 25C19.6367 25 25 20.865 25 19.4167C24.9792 19.1357 24.8963 18.8629 24.7572 18.6179C24.6181 18.3729 24.4264 18.1619 24.1958 18Z" fill="white"/>
</svg>
