<svg width="916" height="859" viewBox="0 0 916 859" fill="none" xmlns="http://www.w3.org/2000/svg">
<g clip-path="url(#clip0_141_504)">
<path opacity="0.7" d="M545.651 215.529L545.714 215.637C546.579 217.136 547.391 218.656 548.139 220.201C516.229 240.999 501.658 279.202 509.759 314.93L645.504 550.047C668.606 590.06 654.898 641.218 614.885 664.32C574.872 687.422 523.713 673.714 500.612 633.701L298.508 283.647C275.407 243.634 289.115 192.476 329.128 169.374C349.134 157.824 371.926 155.478 392.607 161.013C410.109 165.709 426.098 176.051 437.6 191.248L443.126 188.057C479.022 167.333 524.927 179.633 545.651 215.529Z" fill="url(#paint0_linear_141_504)"/>
<path opacity="0.7" d="M208.959 504.348L301.66 450.827L389.475 602.926L366.61 616.127C328.064 638.382 278.709 625.158 256.454 586.611L208.959 504.348Z" fill="url(#paint1_linear_141_504)"/>
<path d="M448.822 380.708L448.806 380.717C449.047 381.097 449.276 381.495 449.501 381.884L532.873 526.288C555.874 566.127 542.226 617.063 502.386 640.064C462.547 663.066 411.611 649.417 388.61 609.578L343.732 531.846C322.892 495.752 277.664 482.519 240.888 500.935L240.812 500.803L215.511 515.41C162.492 546.021 94.712 527.859 64.1059 474.848L0.287109 364.311L329.58 174.193L448.819 380.721L448.822 380.708Z" fill="url(#paint2_linear_141_504)"/>
<path d="M630.432 0.496857L762.365 229.011C779.167 258.114 769.196 295.329 740.093 312.132L700.088 335.229C665.228 355.355 620.642 343.409 600.516 308.548L552.303 225.042C529.183 184.996 477.972 171.274 437.934 194.39L437.926 194.395C397.888 217.511 384.166 268.722 407.287 308.768L329.588 174.189L630.432 0.496857Z" fill="url(#paint3_linear_141_504)"/>
</g>
<defs>
<linearGradient id="paint0_linear_141_504" x1="364.108" y1="149.178" x2="649.865" y2="644.124" gradientUnits="userSpaceOnUse">
<stop stop-color="#7AAEEE"/>
<stop offset="1" stop-color="#638DDE"/>
</linearGradient>
<linearGradient id="paint1_linear_141_504" x1="255.31" y1="477.587" x2="343.124" y2="629.687" gradientUnits="userSpaceOnUse">
<stop stop-color="#7AAEEE"/>
<stop offset="1" stop-color="#638DDE"/>
</linearGradient>
<linearGradient id="paint2_linear_141_504" x1="164.938" y1="269.25" x2="409.867" y2="693.48" gradientUnits="userSpaceOnUse">
<stop stop-color="#4D97E8"/>
<stop offset="1" stop-color="#2461D6"/>
</linearGradient>
<linearGradient id="paint3_linear_141_504" x1="480.01" y1="87.3432" x2="642.367" y2="368.554" gradientUnits="userSpaceOnUse">
<stop stop-color="#4D97E8"/>
<stop offset="1" stop-color="#2461D6"/>
</linearGradient>
<clipPath id="clip0_141_504">
<rect width="727.629" height="571.514" fill="white" transform="translate(0 363.814) rotate(-30)"/>
</clipPath>
</defs>
</svg>
