<svg width="371" height="371" viewBox="0 0 371 371" fill="none" xmlns="http://www.w3.org/2000/svg">
<path opacity="0.7" d="M272.035 160.579L271.997 160.541C271.469 160.014 270.927 159.507 270.367 159.023C258.151 169.986 240.623 171.79 226.655 164.433L143.925 81.7031C129.845 67.6238 107.021 67.6238 92.9419 81.7031C78.8626 95.7825 78.8626 118.607 92.9419 132.686L216.114 255.858C230.193 269.937 253.018 269.937 267.097 255.858C274.137 248.819 277.655 239.593 277.658 230.367C277.655 222.558 275.133 214.748 270.091 208.265L272.035 206.321C284.665 193.691 284.665 173.21 272.035 160.579Z" fill="url(#paint0_linear_702_73)"/>
<path opacity="0.7" d="M114.257 268.52L146.875 235.901L93.3565 182.382L85.3112 190.427C71.7478 203.991 71.7478 226.01 85.3112 239.574L114.257 268.52Z" fill="url(#paint1_linear_702_73)"/>
<path d="M192.475 182.462L192.469 182.468C192.338 182.325 192.198 182.186 192.061 182.049L141.25 131.238C127.232 117.22 104.507 117.22 90.4891 131.238C76.471 145.256 76.471 167.981 90.4891 181.999L117.84 209.35C130.541 222.051 131.004 242.354 119.237 255.608L119.283 255.655L110.381 264.557C91.7251 283.213 91.7251 313.453 110.378 332.106L149.272 371L265.14 255.133L192.469 182.462H192.475Z" fill="url(#paint2_linear_702_73)"/>
<path d="M371 149.272L290.593 68.8651C280.353 58.6248 263.749 58.6248 253.509 68.8651L239.433 82.9415C227.166 95.2077 227.166 115.099 239.433 127.366L268.815 156.749C282.906 170.84 282.906 193.687 268.818 207.775L268.815 207.778C254.727 221.866 231.88 221.866 217.789 207.775L265.143 255.129L371 149.272Z" fill="url(#paint3_linear_702_73)"/>
<defs>
<linearGradient id="paint0_linear_702_73" x1="279.405" y1="243.55" x2="105.25" y2="69.3947" gradientUnits="userSpaceOnUse">
<stop stop-color="#7AAEEE"/>
<stop offset="1" stop-color="#638DDE"/>
</linearGradient>
<linearGradient id="paint1_linear_702_73" x1="130.566" y1="252.21" x2="77.0472" y2="198.691" gradientUnits="userSpaceOnUse">
<stop stop-color="#7AAEEE"/>
<stop offset="1" stop-color="#638DDE"/>
</linearGradient>
<linearGradient id="paint2_linear_702_73" x1="207.208" y1="313.065" x2="57.9347" y2="163.792" gradientUnits="userSpaceOnUse">
<stop stop-color="#4D97E8"/>
<stop offset="1" stop-color="#2461D6"/>
</linearGradient>
<linearGradient id="paint3_linear_702_73" x1="318.071" y1="202.2" x2="219.122" y2="103.252" gradientUnits="userSpaceOnUse">
<stop stop-color="#4D97E8"/>
<stop offset="1" stop-color="#2461D6"/>
</linearGradient>
</defs>
</svg>
