<svg width="1160" height="1160" viewBox="0 0 1160 1160" fill="none" xmlns="http://www.w3.org/2000/svg">
<path opacity="0.7" d="M865.361 539.057L865.25 538.946C863.706 537.402 862.118 535.917 860.48 534.5C824.713 566.597 773.396 571.88 732.5 550.34L490.291 308.13C449.07 266.909 382.247 266.909 341.027 308.13C299.807 349.35 299.807 416.173 341.027 457.393L701.641 818.007C742.861 859.227 809.684 859.227 850.904 818.007C871.514 797.397 881.815 770.386 881.824 743.375C881.815 720.512 874.433 697.649 859.669 678.669L865.361 672.976C902.34 635.998 902.34 576.036 865.361 539.057Z" fill="url(#paint0_linear_2608_6)"/>
<path opacity="0.7" d="M403.43 855.07L498.928 759.572L342.239 602.884L318.685 626.438C278.975 666.148 278.975 730.616 318.685 770.325L403.43 855.07Z" fill="url(#paint1_linear_2608_6)"/>
<path d="M632.437 603.122L632.42 603.139C632.036 602.721 631.626 602.312 631.225 601.911L482.465 453.15C441.424 412.109 374.891 412.109 333.85 453.15C292.809 494.192 292.809 560.724 333.85 601.765L413.927 681.842C451.11 719.026 452.467 778.467 418.015 817.272L418.151 817.408L392.088 843.472C337.469 898.091 337.469 986.625 392.079 1041.24L505.951 1155.11L845.178 815.881L632.42 603.122H632.437Z" fill="url(#paint2_linear_2608_6)"/>
<path d="M1155.11 505.951L919.698 270.543C889.717 240.562 841.106 240.562 811.125 270.543L769.914 311.755C734.002 347.667 734.002 405.904 769.914 441.816L855.939 527.841C897.193 569.096 897.193 635.987 855.947 677.233L855.939 677.241C814.693 718.487 747.802 718.487 706.547 677.233L845.186 815.871L1155.11 505.951Z" fill="url(#paint3_linear_2608_6)"/>
<defs>
<linearGradient id="paint0_linear_2608_6" x1="886.94" y1="781.971" x2="377.063" y2="272.094" gradientUnits="userSpaceOnUse">
<stop stop-color="#7AAEEE"/>
<stop offset="1" stop-color="#638DDE"/>
</linearGradient>
<linearGradient id="paint1_linear_2608_6" x1="451.179" y1="807.321" x2="294.49" y2="650.633" gradientUnits="userSpaceOnUse">
<stop stop-color="#7AAEEE"/>
<stop offset="1" stop-color="#638DDE"/>
</linearGradient>
<linearGradient id="paint2_linear_2608_6" x1="675.569" y1="985.49" x2="238.54" y2="548.461" gradientUnits="userSpaceOnUse">
<stop stop-color="#4D97E8"/>
<stop offset="1" stop-color="#2461D6"/>
</linearGradient>
<linearGradient id="paint3_linear_2608_6" x1="1000.15" y1="660.911" x2="710.452" y2="371.217" gradientUnits="userSpaceOnUse">
<stop stop-color="#4D97E8"/>
<stop offset="1" stop-color="#2461D6"/>
</linearGradient>
</defs>
</svg>
