<svg width="842" height="1998" viewBox="0 0 842 1998" fill="none" xmlns="http://www.w3.org/2000/svg">
<path d="M763 1C472 127.167 -67.4003 383.4 103 399C273.4 414.6 107.333 372.833 2.99961 350C2.66627 464.5 40.6996 710.3 195.5 777.5C389 861.5 604 1046.5 696.5 1016.5C789 986.5 640.5 953.5 639 980.5C637.5 1007.5 671 1090.5 781.5 1116.5C869.9 1137.3 839.333 1347.5 813 1450L723.5 1534.5C528 1580.33 118 1668 192 1713.5C237.5 1741.48 270 1639.5 200.5 1646.5C160.701 1650.51 -61.5001 1838.5 19.4999 1997.5" stroke="#3578E2" stroke-width="2" stroke-linejoin="round" stroke-dasharray="10 10"/>
</svg>
