<svg width="54" height="54" viewBox="0 0 54 54" fill="none" xmlns="http://www.w3.org/2000/svg">
<rect width="54" height="54" rx="13" fill="#3578E2"/>
<path d="M37.7023 29.6824C37.7023 35.3699 33.0711 40.0012 27.3836 40.0012C21.6961 40.0012 17.1055 35.3699 17.1055 29.6824C17.1055 26.9199 18.2023 24.3199 20.1523 22.3699C20.2336 22.2887 20.3148 22.248 20.4367 22.248H23.7273C23.8898 22.248 24.0117 22.3293 24.093 22.4512L25.8398 25.7418L26.8961 22.5324C26.9367 22.3699 27.0992 22.248 27.3023 22.248H34.4117C34.5336 22.248 34.6148 22.2887 34.6961 22.3699C36.6461 24.3199 37.7023 26.9199 37.7023 29.6824Z" fill="white"/>
<path d="M26.0019 16.8844C25.9613 17.0063 25.88 17.1281 25.7581 17.1688L21.6956 19.1188L22.7925 21.4344H21.8988L20.9644 19.4437L16.9019 21.3938C16.8613 21.4344 16.78 21.4344 16.7394 21.4344C16.6581 21.4344 16.6175 21.4344 16.5363 21.3938C16.2925 21.2719 16.13 21.0281 16.0488 20.7031C15.6019 18.9969 18.3644 14.6906 18.6894 14.2031C18.7706 14.0812 18.9331 14 19.0956 14C19.6644 14.0813 24.7831 14.65 25.7988 16.0719C25.9613 16.3156 26.0425 16.6 26.0019 16.8844Z" fill="white"/>
<path d="M36.5236 15.7468L32.1768 17.9811L31.3643 21.4343H30.5518L31.4455 17.6155C31.4861 17.4936 31.5674 17.4124 31.6486 17.3311L36.1986 15.0155C36.3611 14.9343 36.6049 15.0155 36.6861 15.2186C36.808 15.3811 36.7268 15.6249 36.5236 15.7468Z" fill="white"/>
</svg>
