<svg width="54" height="54" viewBox="0 0 54 54" fill="none" xmlns="http://www.w3.org/2000/svg">
<rect width="54" height="54" rx="13" fill="#3578E2"/>
<path d="M22.5465 35.1963C22.5324 35.3364 22.5445 35.4826 22.5955 35.6275C22.7202 35.977 23.0127 36.2616 23.3591 36.3689C23.6811 36.4707 24.0014 36.4029 24.0985 36.2973L24.7702 35.5765C24.9646 35.3687 25.0136 35.0367 24.8995 34.7144C24.6184 34.1759 24.2418 33.9816 23.7596 33.8945L22.5465 35.1963Z" fill="white"/>
<path d="M21.6482 31.591L20.4743 32.85C20.2358 33.1094 20.1674 33.5082 20.3006 33.8904C20.4419 34.2941 20.7792 34.6226 21.1829 34.7453C21.5651 34.8598 21.9485 34.7708 22.1886 34.5153L23.2755 33.3496C23.5156 33.0908 23.5824 32.6939 23.4492 32.3118C23.3079 31.9061 22.9686 31.5789 22.5669 31.4569C22.2462 31.3545 21.87 31.3506 21.6482 31.591Z" fill="white"/>
<path d="M19.3214 29.5208L18.2375 30.6846C17.9986 30.9421 17.9319 31.3422 18.0637 31.7256C18.2051 32.128 18.5424 32.4565 18.9461 32.5792C19.3276 32.6954 19.7149 32.6047 19.8357 32.4768L21.039 31.1855C21.2791 30.926 21.3459 30.5272 21.2127 30.1457C21.0707 29.7407 20.7334 29.4135 20.3297 29.2922C19.9584 29.1711 19.5474 29.2787 19.3214 29.5208Z" fill="white"/>
<path d="M17.2009 27.2268L15.9996 28.5188C15.7594 28.7776 15.6927 29.1744 15.8258 29.5546C15.9659 29.9616 16.3051 30.2887 16.7089 30.4114C17.0903 30.5253 17.4771 30.4369 17.5965 30.3074L18.8011 29.0161V29.0147C19.0412 28.7592 19.108 28.3617 18.9748 27.9802C18.8355 27.5732 18.4962 27.2461 18.0925 27.1247C17.7839 27.0184 17.4106 27.0001 17.2009 27.2268Z" fill="white"/>
<path d="M32.7976 19.5215C32.0205 19.956 30.9406 20.0338 29.8887 20.1094C29.093 20.1637 28.2722 20.2213 27.6823 20.4392L24.4024 21.6494C24.3802 21.6582 24.3576 21.6635 24.3341 21.6667C24.1757 21.6916 24.0291 21.7129 23.8976 21.7312C23.099 21.8437 23.0067 21.8781 22.9148 22.1146C22.831 22.3332 22.923 22.6482 23.15 22.9159C23.3352 23.1357 24.0599 23.8221 25.5508 23.4691L27.4186 23.2224C28.4645 23.0876 29.3031 23.7694 29.9728 24.3197L34.9958 28.338L34.9997 28.336C35.9927 27.9205 37.0272 27.3801 37.9066 26.3207L32.7976 19.5215Z" fill="white"/>
<path d="M25.8864 19.2773C25.5887 19.3048 25.2475 19.3424 24.8896 19.3797C22.9099 19.5911 21.8122 19.6742 21.2537 19.5708L16.1143 26.2604C16.3034 26.4393 16.4601 26.6252 16.5864 26.8264C17.0159 26.3867 17.665 26.2296 18.2971 26.4207C18.9174 26.6078 19.4353 27.1107 19.6519 27.7346C19.7439 27.9986 19.7726 28.2695 19.7491 28.529C20.0026 28.4933 20.2706 28.508 20.5343 28.5885C21.153 28.7743 21.6728 29.2785 21.8878 29.9024C21.981 30.1651 22.0105 30.4354 21.9882 30.6948C22.2418 30.6592 22.5097 30.6742 22.7734 30.7563C23.3908 30.9435 23.9084 31.4463 24.125 32.067C24.2611 32.4605 24.2663 32.8656 24.1557 33.2287C24.2189 33.2408 24.2836 33.2562 24.3481 33.2765C24.902 33.4483 25.3725 33.9034 25.575 34.4644C25.768 35.0075 25.6842 35.5781 25.3672 35.9877L26.279 36.717C26.5022 36.894 26.8274 36.9133 27.131 36.7661C27.4601 36.6064 27.7088 36.2822 27.782 35.9194C27.8128 35.7679 27.8027 35.621 27.768 35.4849L26.6114 34.5597C26.456 34.435 26.4286 34.205 26.5499 34.0453C26.6726 33.887 26.8977 33.8575 27.0541 33.9822L28.4446 35.0965C28.5826 35.2071 28.9782 35.2366 29.341 35.0658C29.7225 34.8835 30.0107 34.508 30.0905 34.0889C30.1671 33.6927 30.0444 33.3086 29.7716 33.0887L28.5139 32.0823C28.3572 31.9577 28.3297 31.727 28.4524 31.5693C28.5738 31.409 28.8002 31.3796 28.9553 31.5062L30.7835 32.9683C31.0583 33.1869 31.4532 33.217 31.818 33.0468C32.1962 32.8659 32.4844 32.491 32.5662 32.0673C32.6428 31.6711 32.5201 31.2883 32.2443 31.0665L30.4154 29.6063C30.2587 29.4804 30.2312 29.2504 30.3539 29.0894C30.4766 28.9317 30.7017 28.9042 30.8587 29.0286C30.8587 29.0286 33.6357 31.249 33.6377 31.249C33.7758 31.3577 34.1693 31.3884 34.5305 31.2157C34.9127 31.0374 35.1989 30.6624 35.282 30.2401C35.3573 29.8432 35.2346 29.4578 34.9601 29.2399L29.5249 24.8902C28.9013 24.3788 28.2571 23.8492 27.5089 23.9496L25.6787 24.1884C24.4449 24.4848 23.2812 24.1917 22.6082 23.396C22.2025 22.9167 22.0645 22.3239 22.2467 21.8472C22.5022 21.186 22.9917 21.1176 23.7994 21.0038C23.9202 20.9884 24.05 20.9694 24.193 20.9469L27.4392 19.7494C27.6502 19.6709 27.8838 19.6166 28.1256 19.5685C27.291 19.2456 26.686 19.2263 25.8864 19.2773Z" fill="white"/>
<path d="M18.8318 18.0089C18.2406 17.9641 17.7007 18.4097 16.9237 19.4216L14.9365 22.0102C14.2177 22.9439 13.9485 23.5246 14.008 24.0167C14.0558 24.4211 14.3371 24.8179 14.6162 25.0417L15.5588 25.7945L20.6773 19.1324L20.0148 18.6021C19.5594 18.2389 19.1864 18.0364 18.8318 18.0089Z" fill="white"/>
<path d="M35.2449 18.0022C34.8902 18.0244 34.514 18.2227 34.055 18.5806L33.3853 19.1002L38.4328 25.8166L39.0852 25.3092C39.6495 24.8714 39.9374 24.4798 39.9901 24.0757C40.0552 23.585 39.7945 22.9997 39.0871 22.0538L37.1323 19.4404C36.3707 18.418 35.8377 17.9642 35.2449 18.0022Z" fill="white"/>
</svg>
