<svg width="54" height="54" viewBox="0 0 54 54" fill="none" xmlns="http://www.w3.org/2000/svg">
<rect width="54" height="54" rx="13" fill="#3578E2"/>
<path d="M20.3671 22.4277H17.0591V23.9573H19.6242L20.3671 22.4277Z" fill="white"/>
<path d="M18.8811 25.4863H15.5293V27.0159H18.1425C18.951 25.3416 18.7037 25.8536 18.8811 25.4863Z" fill="white"/>
<path d="M17.4148 28.5449H14V30.0745H16.6605C16.6559 30.0838 16.8052 29.7812 17.4148 28.5449Z" fill="white"/>
<path d="M14.564 37.7611L17.3386 39.0493C17.3424 39.0414 20.8205 32.0136 20.8243 32.0059L18.0621 30.6914L14.564 37.7611Z" fill="white"/>
<path d="M29.3552 19.8195C30.8874 20.5487 32.7064 19.8928 33.4298 18.3725C34.1559 16.8467 33.5089 15.024 31.9828 14.2978C30.457 13.5717 28.6344 14.2188 27.9082 15.7448C27.1821 17.2706 27.8291 19.0933 29.3552 19.8195Z" fill="white"/>
<path d="M38.1261 22.9968L33.7571 23.7963L32.719 21.4451L32.4143 21.3C29.9098 22.327 27.0639 20.9859 26.2765 18.3792C25.8707 18.1861 22.8246 16.7364 22.3605 16.5156L16.9567 17.3061C16.4461 17.3801 16.0063 17.7043 15.7846 18.1701C15.2454 19.3033 16.2126 20.572 17.4481 20.3522L21.7365 19.6065L23.1177 20.2638L20.7375 25.1871L26.9369 28.1376L29.252 23.361L29.9426 23.6897L31.9678 27.5957L38.7663 26.2014C39.2368 26.081 39.6295 25.7578 39.8381 25.3193C40.3998 24.1392 39.4196 22.8094 38.1261 22.9968Z" fill="white"/>
<path d="M27.8304 30.2569C27.8242 30.2539 20.0794 26.568 20.0719 26.5645L18.7402 29.3189C23.7573 31.7065 21.9482 30.8455 25.6457 32.6054L23.4733 37.0347L26.2129 38.3729L28.8068 33.047C29.311 32.0068 28.8726 30.7556 27.8304 30.2569Z" fill="white"/>
</svg>
