<svg width="54" height="54" viewBox="0 0 54 54" fill="none" xmlns="http://www.w3.org/2000/svg">
<rect width="54" height="54" rx="13" fill="#3578E2"/>
<path d="M26.9997 32.4173C29.9912 32.4173 32.4163 29.9922 32.4163 27.0007C32.4163 24.0091 29.9912 21.584 26.9997 21.584C24.0081 21.584 21.583 24.0091 21.583 27.0007C21.583 29.9922 24.0081 32.4173 26.9997 32.4173Z" fill="white"/>
<path d="M38.9167 25.9167H37.7781C37.2689 20.8066 33.1934 16.7311 28.0833 16.2219V15.0833C28.0833 14.4853 27.5991 14 27 14C26.4009 14 25.9167 14.4853 25.9167 15.0833V16.2219C20.8066 16.7311 16.7311 20.8066 16.2219 25.9167H15.0833C14.4843 25.9167 14 26.402 14 27C14 27.598 14.4843 28.0833 15.0833 28.0833H16.2219C16.7322 33.1934 20.8066 37.2689 25.9167 37.7781V38.9167C25.9167 39.5147 26.4009 40 27 40C27.5991 40 28.0833 39.5147 28.0833 38.9167V37.7781C33.1934 37.2678 37.2689 33.1934 37.7781 28.0833H38.9167C39.5158 28.0833 40 27.598 40 27C40 26.402 39.5158 25.9167 38.9167 25.9167ZM28.0682 35.5941C28.0292 35.0318 27.5731 34.5833 27 34.5833C26.4269 34.5833 25.9708 35.0318 25.9318 35.5941C22.008 35.1088 18.8923 31.9931 18.407 28.0693C18.9693 28.0292 19.4167 27.572 19.4167 27C19.4167 26.428 18.9693 25.9708 18.4059 25.9318C18.8913 22.008 22.0069 18.8923 25.9307 18.407C25.9708 18.9682 26.4269 19.4167 27 19.4167C27.5731 19.4167 28.0292 18.9682 28.0682 18.4059C31.992 18.8913 35.1077 22.0069 35.593 25.9307C35.0308 25.9708 34.5833 26.428 34.5833 27C34.5833 27.572 35.0308 28.0292 35.5941 28.0682C35.1077 31.9931 31.9931 35.1077 28.0682 35.5941Z" fill="white"/>
</svg>
