<svg width="17" height="20" viewBox="0 0 17 20" fill="none" xmlns="http://www.w3.org/2000/svg">
<path d="M8.21658 9.63402C9.54011 9.63402 10.6862 9.15932 11.6226 8.22275C12.559 7.28632 13.0337 6.14055 13.0337 4.81686C13.0337 3.49363 12.559 2.3477 11.6225 1.41097C10.6859 0.474697 9.53996 0 8.21658 0C6.89289 0 5.74711 0.474697 4.81069 1.41112C3.87426 2.34755 3.39941 3.49347 3.39941 4.81686C3.39941 6.14055 3.87426 7.28647 4.81084 8.2229C5.74742 9.15917 6.89335 9.63402 8.21658 9.63402Z" fill="white"/>
<path d="M16.6455 15.3783C16.6185 14.9886 16.5639 14.5635 16.4835 14.1146C16.4023 13.6624 16.2978 13.2348 16.1727 12.844C16.0434 12.4401 15.8676 12.0413 15.6504 11.659C15.4248 11.2623 15.16 10.9169 14.8627 10.6326C14.5519 10.3352 14.1713 10.0961 13.7313 9.92169C13.2927 9.7482 12.8068 9.66031 12.2869 9.66031C12.0827 9.66031 11.8853 9.74408 11.504 9.99234C11.2693 10.1454 10.9948 10.3224 10.6884 10.5182C10.4264 10.6851 10.0715 10.8415 9.63311 10.9831C9.20541 11.1215 8.77114 11.1917 8.34253 11.1917C7.91391 11.1917 7.4798 11.1215 7.05164 10.9831C6.61372 10.8416 6.2588 10.6852 5.99712 10.5183C5.69362 10.3244 5.41897 10.1474 5.18078 9.99218C4.79992 9.74393 4.60232 9.66016 4.39816 9.66016C3.87814 9.66016 3.39231 9.7482 2.95393 9.92184C2.51417 10.0959 2.13347 10.335 1.82234 10.6327C1.52526 10.9172 1.26021 11.2625 1.035 11.659C0.817865 12.0413 0.642085 12.44 0.512691 12.8442C0.387723 13.235 0.283201 13.6624 0.202025 14.1146C0.121612 14.5629 0.0669856 14.9882 0.0399777 15.3788C0.0134276 15.7615 0 16.1587 0 16.5598C0 17.6038 0.331876 18.449 0.986321 19.0723C1.63268 19.6874 2.48793 19.9994 3.52796 19.9994H13.158C14.198 19.9994 15.053 19.6875 15.6995 19.0723C16.3541 18.4495 16.686 17.6041 16.686 16.5597C16.6858 16.1567 16.6722 15.7592 16.6455 15.3783Z" fill="white"/>
</svg>
