<svg width="54" height="54" viewBox="0 0 54 54" fill="none" xmlns="http://www.w3.org/2000/svg">
<rect width="54" height="54" rx="13" fill="#3578E2"/>
<path d="M22.1601 27.5724V34.7516C22.1601 34.9632 22.0612 35.1661 21.8852 35.3157C21.7092 35.4653 21.4705 35.5493 21.2216 35.5493H17.4678C17.2189 35.5493 16.9802 35.4653 16.8042 35.3157C16.6282 35.1661 16.5293 34.9632 16.5293 34.7516V27.5724C16.5293 27.3608 16.6282 27.1579 16.8042 27.0083C16.9802 26.8587 17.2189 26.7747 17.4678 26.7747H21.2216C21.4705 26.7747 21.7092 26.8587 21.8852 27.0083C22.0612 27.1579 22.1601 27.3608 22.1601 27.5724ZM28.7294 18H24.9755C24.7266 18 24.4879 18.084 24.3119 18.2336C24.1359 18.3832 24.037 18.5861 24.037 18.7977V34.7516C24.037 34.9632 24.1359 35.1661 24.3119 35.3157C24.4879 35.4653 24.7266 35.5493 24.9755 35.5493H28.7294C28.9783 35.5493 29.217 35.4653 29.393 35.3157C29.5689 35.1661 29.6678 34.9632 29.6678 34.7516V18.7977C29.6678 18.5861 29.5689 18.3832 29.393 18.2336C29.217 18.084 28.9783 18 28.7294 18ZM36.2371 21.9885H32.4832C32.2343 21.9885 31.9956 22.0725 31.8196 22.2221C31.6436 22.3717 31.5448 22.5746 31.5448 22.7862V34.7516C31.5448 34.9632 31.6436 35.1661 31.8196 35.3157C31.9956 35.4653 32.2343 35.5493 32.4832 35.5493H36.2371C36.486 35.5493 36.7247 35.4653 36.9007 35.3157C37.0767 35.1661 37.1756 34.9632 37.1756 34.7516V22.7862C37.1756 22.5746 37.0767 22.3717 36.9007 22.2221C36.7247 22.0725 36.486 21.9885 36.2371 21.9885Z" fill="white"/>
</svg>
