<svg width="54" height="54" viewBox="0 0 54 54" fill="none" xmlns="http://www.w3.org/2000/svg">
<path d="M0 13C0 5.8203 5.8203 0 13 0H41C48.1797 0 54 5.8203 54 13V41C54 48.1797 48.1797 54 41 54H13C5.8203 54 0 48.1797 0 41V13Z" fill="#3578E2"/>
<path d="M35.9621 28.8732C31.8372 29.034 27.9318 30.1066 24.4521 31.8843L19.9777 34.468C18.7944 35.1503 17.2832 34.7408 16.6041 33.5636L14.3301 29.6261C13.6496 28.4468 14.0552 26.933 15.2345 26.2525L18.9416 24.1119C19.1563 23.988 19.4308 24.0615 19.5548 24.2762L22.4677 29.3214C22.5938 29.5399 22.8758 29.6124 23.0922 29.4789C23.3016 29.3499 23.3587 29.0695 23.2357 28.8565L20.3018 23.7748C20.1853 23.5729 20.2425 23.3152 20.4341 23.1824C23.4945 21.0606 26.0837 18.3582 28.072 15.2064C28.8253 14.0114 30.5806 14.0434 31.2886 15.2693L37.5157 26.0561C38.2234 27.2793 37.3761 28.8182 35.9621 28.8732ZM36.7612 21.3605C36.9917 20.041 36.2184 18.7176 34.9684 18.2646C34.5755 18.1222 34.2191 18.5498 34.4279 18.9118C34.9253 19.7734 35.4244 20.638 35.929 21.5117C36.1399 21.8767 36.6887 21.7758 36.7612 21.3605ZM26.4001 37.2424L24.2701 33.5449C24.1463 33.33 23.8715 33.2563 23.6566 33.3803C22.5023 34.0463 22.4586 34.0722 20.9188 34.961C20.7041 35.0849 20.6303 35.3596 20.7543 35.5743L22.8879 39.2695C23.1614 39.7427 23.6533 40 24.1542 40C24.6401 40 24.8259 39.8356 25.866 39.2353C26.5628 38.833 26.8024 37.9387 26.4001 37.2424ZM40.0384 17.9478C40.2531 17.8238 40.3267 17.5493 40.2027 17.3346C40.0788 17.12 39.8044 17.0464 39.5896 17.1704L38.4283 17.8409C38.0308 18.0703 38.197 18.6785 38.6531 18.6785C38.8127 18.6785 38.7808 18.6739 40.0384 17.9478ZM35.9112 15.6219L36.1944 14.5651C36.2586 14.3256 36.1165 14.0796 35.8771 14.0154C35.6375 13.9513 35.3915 14.0933 35.3273 14.3328L35.0441 15.3896C34.9678 15.6741 35.1823 15.9547 35.4779 15.9547C35.6761 15.9547 35.8575 15.8224 35.9112 15.6219ZM40.9145 22.7404C40.9786 22.5009 40.8365 22.2548 40.5971 22.1907L39.5402 21.9075C39.3008 21.8435 39.0547 21.9855 38.9905 22.2249C38.9263 22.4643 39.0685 22.7104 39.3079 22.7746C40.4637 23.0843 40.4003 23.0732 40.4812 23.0732C40.6793 23.0732 40.8607 22.9409 40.9145 22.7404Z" fill="white"/>
</svg>
