<svg width="54" height="54" viewBox="0 0 54 54" fill="none" xmlns="http://www.w3.org/2000/svg">
<rect width="54" height="54" rx="13" fill="#3578E2"/>
<path d="M30.4078 32.1802C30.3131 32.0659 30.172 32 30.0235 32H23.9746C23.8262 32 23.6851 32.0659 23.5903 32.1802C23.4951 32.2945 23.456 32.4448 23.4829 32.5908C24.2017 36.4844 25.5821 39.0001 26.9991 39.0001C28.4161 39.0001 29.7964 36.4844 30.5152 32.5909C30.542 32.4448 30.503 32.2945 30.4078 32.1802Z" fill="white"/>
<path d="M38.4307 23.3477C38.3648 23.1406 38.1724 23 37.9547 23H32.3243C32.1832 23 32.0484 23.0596 31.9537 23.1645C31.8585 23.2695 31.8126 23.4096 31.8267 23.5503C31.9425 24.6987 32.0011 25.8599 32.0011 27C32.0011 28.1402 31.9425 29.3013 31.8267 30.4497C31.8126 30.5904 31.8585 30.7305 31.9537 30.8355C32.0484 30.9405 32.1832 31 32.3243 31H37.9547C38.1725 31 38.3649 30.8594 38.4308 30.6523C38.8091 29.4673 39.001 28.2388 39.001 27.0001C39.001 25.7613 38.8091 24.5328 38.4307 23.3477Z" fill="white"/>
<path d="M31.5609 21.5823C31.6014 21.823 31.8099 21.9993 32.054 21.9993H37.101C37.2772 21.9993 37.4408 21.906 37.5311 21.7546C37.621 21.6027 37.6244 21.4148 37.5399 21.26C36.0389 18.5094 33.4603 16.4143 30.4642 15.5119C30.2713 15.4523 30.0589 15.5182 29.9305 15.677C29.803 15.8361 29.7845 16.0564 29.8836 16.2341C30.6121 17.5397 31.1922 19.3889 31.5609 21.5823Z" fill="white"/>
<path d="M30.315 23H23.685C23.4297 23 23.2153 23.1924 23.188 23.4463C23.0635 24.6006 23 25.7964 23 27.0001C23 28.2037 23.0635 29.3995 23.188 30.5538C23.2153 30.8077 23.4297 31.0001 23.685 31.0001H30.315C30.5704 31.0001 30.7847 30.8077 30.812 30.5538C30.9365 29.3995 31 28.2037 31 27.0001C31 25.7964 30.9365 24.6006 30.812 23.4463C30.7847 23.1924 30.5704 23 30.315 23Z" fill="white"/>
<path d="M16.9004 21.9994H21.9473C22.1915 21.9994 22.4 21.8231 22.4405 21.5824C22.8092 19.389 23.3893 17.5399 24.1178 16.2342C24.2169 16.0564 24.1983 15.8362 24.0709 15.6771C23.943 15.5189 23.7315 15.452 23.5372 15.512C20.5411 16.4144 17.9624 18.5096 16.4614 21.2602C16.377 21.4149 16.3804 21.603 16.4703 21.7548C16.5606 21.9062 16.7241 21.9994 16.9004 21.9994Z" fill="white"/>
<path d="M22.0474 30.8355C22.1426 30.7305 22.1885 30.5904 22.1744 30.4497C22.0586 29.3013 22 28.1402 22 27C22 25.8599 22.0586 24.6987 22.1744 23.5503C22.1885 23.4096 22.1426 23.2695 22.0474 23.1645C21.9527 23.0595 21.8179 23 21.6768 23H16.0464C15.8286 23 15.6362 23.1406 15.5703 23.3477C15.1919 24.5327 15 25.7612 15 27C15 28.2388 15.1919 29.4673 15.5703 30.6524C15.6362 30.8594 15.8286 31.0001 16.0464 31.0001H21.6768C21.8179 31 21.9527 30.9405 22.0474 30.8355Z" fill="white"/>
<path d="M22.4405 32.417C22.3999 32.1763 22.1914 32 21.9473 32H16.9004C16.7242 32 16.5606 32.0933 16.4703 32.2446C16.3804 32.3965 16.377 32.5845 16.4614 32.7393C17.9624 35.4898 20.541 37.585 23.5372 38.4874C23.5845 38.502 23.6329 38.5088 23.6812 38.5088C23.8301 38.5088 23.9742 38.4419 24.0709 38.3223C24.1983 38.1631 24.2169 37.9429 24.1178 37.7652C23.3892 36.4595 22.8091 34.6103 22.4405 32.417Z" fill="white"/>
<path d="M37.1009 32H32.054C31.8099 32 31.6014 32.1763 31.5609 32.417C31.1922 34.6104 30.6121 36.4595 29.8836 37.7652C29.7845 37.9429 29.803 38.1632 29.9305 38.3223C30.0272 38.4419 30.1712 38.5088 30.3202 38.5088C30.368 38.5088 30.4169 38.502 30.4642 38.4874C33.4603 37.585 36.039 35.4898 37.5399 32.7393C37.6244 32.5845 37.621 32.3965 37.5311 32.2446C37.4408 32.0932 37.2772 32 37.1009 32Z" fill="white"/>
<path d="M23.5903 21.8199C23.685 21.9342 23.8261 22.0001 23.9746 22.0001H30.0235C30.1719 22.0001 30.313 21.9342 30.4077 21.8199C30.5029 21.7056 30.542 21.5552 30.5152 21.4093C29.7964 17.5157 28.416 15 26.999 15C25.582 15 24.2016 17.5157 23.4829 21.4092C23.456 21.5552 23.4951 21.7056 23.5903 21.8199Z" fill="white"/>
</svg>
