<svg width="54" height="54" viewBox="0 0 54 54" fill="none" xmlns="http://www.w3.org/2000/svg">
<rect width="54" height="54" rx="13" fill="#3578E2"/>
<path d="M27 17.7451C26.5515 17.7451 26.1875 17.3811 26.1875 16.9326V14.8125C26.1875 14.364 26.5515 14 27 14C27.4485 14 27.8125 14.364 27.8125 14.8125V16.9326C27.8125 17.3811 27.4485 17.7451 27 17.7451Z" fill="white"/>
<path d="M34.1189 20.6935C33.9109 20.6935 33.7029 20.6144 33.5447 20.4552C33.2273 20.1378 33.2273 19.6232 33.5447 19.3058L35.044 17.8064C35.3615 17.489 35.876 17.489 36.1935 17.8064C36.5109 18.1238 36.5109 18.6384 36.1935 18.9558L34.6941 20.4552C34.5349 20.6133 34.3269 20.6935 34.1189 20.6935Z" fill="white"/>
<path d="M39.1885 27.8125H37.0684C36.6199 27.8125 36.2559 27.4485 36.2559 27C36.2559 26.5515 36.6199 26.1875 37.0684 26.1875H39.1885C39.637 26.1875 40.001 26.5515 40.001 27C40.001 27.4485 39.637 27.8125 39.1885 27.8125Z" fill="white"/>
<path d="M35.6182 36.4298C35.4102 36.4298 35.2022 36.3508 35.044 36.1915L33.5447 34.6922C33.2273 34.3748 33.2273 33.8602 33.5447 33.5428C33.8621 33.2253 34.3767 33.2253 34.6941 33.5428L36.1935 35.0421C36.5109 35.3595 36.5109 35.8741 36.1935 36.1915C36.0342 36.3508 35.8262 36.4298 35.6182 36.4298Z" fill="white"/>
<path d="M18.3825 36.4298C18.1745 36.4298 17.9665 36.3508 17.8084 36.1915C17.491 35.8741 17.491 35.3595 17.8084 35.0421L19.3077 33.5428C19.6251 33.2253 20.1397 33.2253 20.4571 33.5428C20.7746 33.8602 20.7746 34.3748 20.4571 34.6922L18.9578 36.1915C18.7985 36.3508 18.5905 36.4298 18.3825 36.4298Z" fill="white"/>
<path d="M16.9326 27.8125H14.8125C14.364 27.8125 14 27.4485 14 27C14 26.5515 14.364 26.1875 14.8125 26.1875H16.9326C17.3811 26.1875 17.7451 26.5515 17.7451 27C17.7451 27.4485 17.3811 27.8125 16.9326 27.8125Z" fill="white"/>
<path d="M19.8819 20.6935C19.6739 20.6935 19.4659 20.6144 19.3077 20.4552L17.8084 18.9558C17.491 18.6384 17.491 18.1238 17.8084 17.8064C18.1258 17.489 18.6404 17.489 18.9578 17.8064L20.4571 19.3058C20.7746 19.6232 20.7746 20.1378 20.4571 20.4552C20.2968 20.6133 20.0899 20.6935 19.8819 20.6935Z" fill="white"/>
<path d="M30.25 36.75V38.1042C30.25 39.1442 29.3942 40 28.3542 40H25.6458C24.7358 40 23.75 39.3067 23.75 37.79V36.75H30.25Z" fill="white"/>
<path d="M31.7783 21.1065C30.0016 19.6657 27.6616 19.1023 25.3758 19.5898C22.5049 20.1857 20.1757 22.5257 19.5799 25.3965C18.9732 28.3432 20.0782 31.2682 22.4399 33.0557C23.0791 33.5324 23.5233 34.269 23.6749 35.1249V35.1357C23.6966 35.1249 23.7291 35.1249 23.7508 35.1249H30.2508C30.2724 35.1249 30.2833 35.1249 30.3049 35.1357V35.1249C30.4566 34.3015 30.9441 33.5432 31.6916 32.9582C33.5225 31.5065 34.5841 29.3398 34.5841 26.9998C34.5841 24.7032 33.5658 22.5582 31.7783 21.1065ZM31.0633 27.5415C30.6191 27.5415 30.2508 27.1732 30.2508 26.729C30.2508 25.0823 28.9183 23.7498 27.2716 23.7498C26.8274 23.7498 26.4591 23.3815 26.4591 22.9373C26.4591 22.4932 26.8274 22.1248 27.2716 22.1248C29.8066 22.1248 31.8758 24.194 31.8758 26.729C31.8758 27.1732 31.5074 27.5415 31.0633 27.5415Z" fill="white"/>
<path d="M23.6738 35.125H23.7497C23.728 35.125 23.6955 35.125 23.6738 35.1358V35.125Z" fill="white"/>
<path d="M30.3042 35.125V35.1358C30.2825 35.125 30.2717 35.125 30.25 35.125H30.3042Z" fill="white"/>
</svg>
